Katibeh-Latin-open-Demibold.ufo
<glyph name="dollar" format="1">
  <advance width="389"/>
  <unicode hex="0024"/>
  <outline>
    <contour>
      <point x="180" y="-99" type="line"/>
      <point x="190" y="-99"/>
      <point x="202" y="-96"/>
      <point x="208" y="-84" type="curve"/>
      <point x="208" y="14" type="line"/>
      <point x="180" y="13" type="line"/>
    </contour>
    <contour>
      <point x="289" y="1"/>
      <point x="362" y="50"/>
      <point x="362" y="134" type="curve" smooth="yes"/>
      <point x="362" y="272"/>
      <point x="127" y="260"/>
      <point x="127" y="380" type="curve" smooth="yes"/>
      <point x="127" y="412"/>
      <point x="152" y="442"/>
      <point x="202" y="442" type="curve" smooth="yes"/>
      <point x="248" y="442"/>
      <point x="269" y="413"/>
      <point x="269" y="382" type="curve" smooth="yes"/>
      <point x="269" y="361"/>
      <point x="259" y="340"/>
      <point x="242" y="326" type="curve"/>
      <point x="257" y="319"/>
      <point x="273" y="315"/>
      <point x="288" y="315" type="curve" smooth="yes"/>
      <point x="329" y="315"/>
      <point x="355" y="337"/>
      <point x="355" y="373" type="curve" smooth="yes"/>
      <point x="355" y="430"/>
      <point x="293" y="466"/>
      <point x="204" y="466" type="curve" smooth="yes"/>
      <point x="99" y="466"/>
      <point x="29" y="413"/>
      <point x="29" y="338" type="curve" smooth="yes"/>
      <point x="29" y="192"/>
      <point x="262" y="196"/>
      <point x="262" y="94" type="curve" smooth="yes"/>
      <point x="262" y="58"/>
      <point x="234" y="24"/>
      <point x="185" y="24" type="curve" smooth="yes"/>
      <point x="137" y="24"/>
      <point x="109" y="55"/>
      <point x="109" y="91" type="curve" smooth="yes"/>
      <point x="109" y="117"/>
      <point x="117" y="142"/>
      <point x="140" y="154" type="curve"/>
      <point x="125" y="162"/>
      <point x="109" y="166"/>
      <point x="94" y="166" type="curve" smooth="yes"/>
      <point x="54" y="166"/>
      <point x="22" y="142"/>
      <point x="22" y="101" type="curve" smooth="yes"/>
      <point x="22" y="39"/>
      <point x="86" y="1"/>
      <point x="180" y="1" type="curve" smooth="yes"/>
    </contour>
    <contour>
      <point x="208" y="567" type="line"/>
      <point x="198" y="567"/>
      <point x="186" y="564"/>
      <point x="180" y="552" type="curve"/>
      <point x="180" y="454" type="line"/>
      <point x="208" y="455" type="line"/>
    </contour>
    <contour>
      <point x="200" y="467" type="move" name="top"/>
    </contour>
    <contour>
      <point x="194" y="0" type="move" name="bottom"/>
    </contour>
  </outline>
</glyph>
<glyph name="asterisk" format="1">
  <advance width="373"/>
  <unicode hex="002A"/>
  <outline>
    <contour>
      <point x="235" y="527" type="line"/>
      <point x="219" y="533"/>
      <point x="202" y="537"/>
      <point x="183" y="537" type="curve" smooth="yes"/>
      <point x="164" y="537"/>
      <point x="147" y="533"/>
      <point x="131" y="527" type="curve"/>
      <point x="178" y="394" type="line"/>
      <point x="188" y="394" type="line"/>
    </contour>
    <contour>
      <point x="72" y="485" type="line"/>
      <point x="54" y="462"/>
      <point x="42" y="434"/>
      <point x="41" y="403" type="curve" smooth="yes"/>
      <point x="40" y="397"/>
      <point x="40" y="391"/>
      <point x="40" y="385" type="curve"/>
      <point x="181" y="388" type="line"/>
      <point x="185" y="398" type="line"/>
    </contour>
    <contour>
      <point x="63" y="317" type="line"/>
      <point x="84" y="286"/>
      <point x="112" y="265"/>
      <point x="148" y="255" type="curve"/>
      <point x="188" y="390" type="line"/>
      <point x="179" y="397" type="line"/>
    </contour>
    <contour>
      <point x="219" y="255" type="line"/>
      <point x="254" y="266"/>
      <point x="284" y="287"/>
      <point x="304" y="317" type="curve"/>
      <point x="187" y="397" type="line"/>
      <point x="178" y="390" type="line"/>
    </contour>
    <contour>
      <point x="326" y="385" type="line"/>
      <point x="327" y="391"/>
      <point x="326" y="397"/>
      <point x="326" y="403" type="curve" smooth="yes"/>
      <point x="324" y="434"/>
      <point x="312" y="462"/>
      <point x="294" y="485" type="curve"/>
      <point x="182" y="398" type="line"/>
      <point x="185" y="388" type="line"/>
    </contour>
  </outline>
</glyph>
<glyph name="comma" format="1">
  <advance width="144"/>
  <unicode hex="002C"/>
  <outline>
    <contour>
      <point x="16" y="87" type="line"/>
      <point x="19" y="68" type="line"/>
      <point x="31" y="60" type="line" smooth="yes"/>
      <point x="43" y="50"/>
      <point x="48" y="38"/>
      <point x="48" y="26" type="curve" smooth="yes"/>
      <point x="48" y="14"/>
      <point x="44" y="2"/>
      <point x="39" y="-8" type="curve" smooth="yes"/>
      <point x="10" y="-73" type="line"/>
      <point x="37" y="-91" type="line"/>
      <point x="68" y="-57" type="line" smooth="yes"/>
      <point x="102" y="-17"/>
      <point x="127" y="14"/>
      <point x="127" y="50" type="curve" smooth="yes"/>
      <point x="127" y="88"/>
      <point x="104" y="102"/>
      <point x="74" y="102" type="curve" smooth="yes"/>
      <point x="58" y="102"/>
      <point x="41" y="100"/>
      <point x="24" y="91" type="curve" smooth="yes"/>
    </contour>
  </outline>
</glyph>
<glyph name="one" format="1">
  <advance width="314"/>
  <unicode hex="0031"/>
  <outline>
    <contour>
      <point x="137" y="407" type="line"/>
      <point x="137" y="83" type="line" smooth="yes"/>
      <point x="137" y="44"/>
      <point x="130" y="33"/>
      <point x="95" y="25" type="curve" smooth="yes"/>
      <point x="66" y="18" type="line"/>
      <point x="72" y="0" type="line"/>
      <point x="262" y="0" type="line"/>
      <point x="271" y="10" type="line"/>
      <point x="262" y="22" type="line" smooth="yes"/>
      <point x="240" y="51"/>
      <point x="233" y="78"/>
      <point x="233" y="131" type="curve" smooth="yes"/>
      <point x="233" y="451" type="line"/>
      <point x="241" y="463" type="line"/>
      <point x="224" y="477" type="line"/>
      <point x="9" y="393" type="line"/>
      <point x="18" y="367"/>
      <point x="32" y="344"/>
      <point x="43" y="337" type="curve"/>
      <point x="146" y="403" type="line"/>
    </contour>
  </outline>
</glyph>
<glyph name="two" format="1">
  <advance width="396"/>
  <unicode hex="0032"/>
  <outline>
    <contour>
      <point x="123" y="414"/>
      <point x="155" y="455"/>
      <point x="194" y="455" type="curve" smooth="yes"/>
      <point x="231" y="455"/>
      <point x="258" y="413"/>
      <point x="258" y="355" type="curve" smooth="yes"/>
      <point x="258" y="265"/>
      <point x="201" y="189"/>
      <point x="17" y="33" type="curve"/>
      <point x="36" y="0" type="line"/>
      <point x="354" y="0" type="line"/>
      <point x="367" y="12"/>
      <point x="376" y="43"/>
      <point x="376" y="74" type="curve"/>
      <point x="113" y="74" type="line"/>
      <point x="286" y="188"/>
      <point x="364" y="275"/>
      <point x="364" y="354" type="curve" smooth="yes"/>
      <point x="364" y="430"/>
      <point x="300" y="476"/>
      <point x="194" y="476" type="curve" smooth="yes"/>
      <point x="99" y="476"/>
      <point x="33" y="430"/>
      <point x="33" y="365" type="curve" smooth="yes"/>
      <point x="33" y="315"/>
      <point x="81" y="281"/>
      <point x="155" y="280" type="curve"/>
      <point x="137" y="298"/>
      <point x="123" y="335"/>
      <point x="123" y="363" type="curve" smooth="yes"/>
    </contour>
  </outline>
</glyph>
<glyph name="three" format="1">
  <advance width="396"/>
  <unicode hex="0033"/>
  <outline>
    <contour>
      <point x="121" y="138"/>
      <point x="137" y="161"/>
      <point x="153" y="178" type="curve"/>
      <point x="68" y="178"/>
      <point x="30" y="141"/>
      <point x="30" y="93" type="curve" smooth="yes"/>
      <point x="30" y="33"/>
      <point x="97" y="-9"/>
      <point x="192" y="-9" type="curve" smooth="yes"/>
      <point x="304" y="-9"/>
      <point x="371" y="39"/>
      <point x="371" y="120" type="curve" smooth="yes"/>
      <point x="371" y="183"/>
      <point x="318" y="229"/>
      <point x="230" y="244" type="curve"/>
      <point x="315" y="268"/>
      <point x="357" y="309"/>
      <point x="357" y="363" type="curve" smooth="yes"/>
      <point x="357" y="429"/>
      <point x="287" y="476"/>
      <point x="191" y="476" type="curve" smooth="yes"/>
      <point x="103" y="476"/>
      <point x="43" y="436"/>
      <point x="43" y="378" type="curve" smooth="yes"/>
      <point x="43" y="333"/>
      <point x="77" y="299"/>
      <point x="151" y="299" type="curve"/>
      <point x="141" y="316"/>
      <point x="133" y="343"/>
      <point x="133" y="374" type="curve" smooth="yes"/>
      <point x="133" y="421"/>
      <point x="160" y="453"/>
      <point x="193" y="453" type="curve" smooth="yes"/>
      <point x="233" y="453"/>
      <point x="255" y="417"/>
      <point x="255" y="369" type="curve" smooth="yes"/>
      <point x="255" y="295"/>
      <point x="209" y="263"/>
      <point x="110" y="239" type="curve"/>
      <point x="113" y="220" type="line"/>
      <point x="131" y="224"/>
      <point x="150" y="226"/>
      <point x="162" y="226" type="curve" smooth="yes"/>
      <point x="228" y="226"/>
      <point x="268" y="183"/>
      <point x="268" y="114" type="curve" smooth="yes"/>
      <point x="268" y="57"/>
      <point x="236" y="19"/>
      <point x="189" y="19" type="curve" smooth="yes"/>
      <point x="152" y="19"/>
      <point x="121" y="51"/>
      <point x="121" y="95" type="curve" smooth="yes"/>
    </contour>
  </outline>
</glyph>
<glyph name="six" format="1">
  <advance width="429"/>
  <unicode hex="0036"/>
  <outline>
    <contour>
      <point x="260" y="231"/>
      <point x="283" y="194"/>
      <point x="283" y="132" type="curve" smooth="yes"/>
      <point x="283" y="62"/>
      <point x="258" y="19"/>
      <point x="217" y="19" type="curve" smooth="yes"/>
      <point x="180" y="19"/>
      <point x="158" y="59"/>
      <point x="158" y="127" type="curve" smooth="yes"/>
      <point x="158" y="189"/>
      <point x="185" y="231"/>
      <point x="224" y="231" type="curve" smooth="yes"/>
    </contour>
    <contour>
      <point x="289" y="362"/>
      <point x="283" y="333"/>
      <point x="268" y="312" type="curve"/>
      <point x="347" y="312"/>
      <point x="380" y="345"/>
      <point x="380" y="388" type="curve" smooth="yes"/>
      <point x="380" y="439"/>
      <point x="323" y="476"/>
      <point x="243" y="476" type="curve" smooth="yes"/>
      <point x="113" y="476"/>
      <point x="31" y="373"/>
      <point x="31" y="213" type="curve" smooth="yes"/>
      <point x="31" y="79"/>
      <point x="107" y="-9"/>
      <point x="223" y="-9" type="curve" smooth="yes"/>
      <point x="323" y="-9"/>
      <point x="388" y="50"/>
      <point x="388" y="142" type="curve" smooth="yes"/>
      <point x="388" y="216"/>
      <point x="337" y="262"/>
      <point x="257" y="262" type="curve" smooth="yes"/>
      <point x="191" y="262"/>
      <point x="154" y="234"/>
      <point x="141" y="174" type="curve"/>
      <point x="137" y="174" type="line"/>
      <point x="134" y="185"/>
      <point x="133" y="198"/>
      <point x="133" y="212" type="curve" smooth="yes"/>
      <point x="133" y="354"/>
      <point x="173" y="452"/>
      <point x="232" y="452" type="curve" smooth="yes"/>
      <point x="264" y="452"/>
      <point x="289" y="424"/>
      <point x="289" y="380" type="curve" smooth="yes"/>
    </contour>
  </outline>
</glyph>
<glyph name="less" format="1">
  <advance width="404"/>
  <unicode hex="003C"/>
  <outline>
    <contour>
      <point x="64" y="207" type="line"/>
      <point x="339" y="96" type="line"/>
      <point x="339" y="146" type="line"/>
      <point x="120" y="232" type="line"/>
      <point x="339" y="319" type="line"/>
      <point x="339" y="368" type="line"/>
      <point x="64" y="257" type="line"/>
    </contour>
  </outline>
</glyph>
<glyph name="greater" format="1">
  <advance width="405"/>
  <unicode hex="003E"/>
  <outline>
    <contour>
      <point x="340" y="257" type="line"/>
      <point x="65" y="368" type="line"/>
      <point x="65" y="319" type="line"/>
      <point x="285" y="232" type="line"/>
      <point x="65" y="146" type="line"/>
      <point x="65" y="96" type="line"/>
      <point x="340" y="207" type="line"/>
    </contour>
  </outline>
</glyph>
<glyph name="at" format="1">
  <advance width="628"/>
  <unicode hex="0040"/>
  <outline>
    <contour>
      <point x="335" y="308"/>
      <point x="345" y="306"/>
      <point x="356" y="300" type="curve"/>
      <point x="354" y="189"/>
      <point x="329" y="106"/>
      <point x="296" y="106" type="curve" smooth="yes"/>
      <point x="275" y="106"/>
      <point x="261" y="138"/>
      <point x="261" y="183" type="curve" smooth="yes"/>
      <point x="261" y="262"/>
      <point x="283" y="308"/>
      <point x="320" y="308" type="curve" smooth="yes"/>
    </contour>
    <contour>
      <point x="599" y="341"/>
      <point x="487" y="439"/>
      <point x="329" y="439" type="curve" smooth="yes"/>
      <point x="164" y="439"/>
      <point x="29" y="315"/>
      <point x="29" y="163" type="curve" smooth="yes"/>
      <point x="29" y="26"/>
      <point x="142" y="-72"/>
      <point x="300" y="-72" type="curve" smooth="yes"/>
      <point x="355" y="-72"/>
      <point x="401" y="-59"/>
      <point x="452" y="-32" type="curve"/>
      <point x="445" y="-16" type="line"/>
      <point x="403" y="-36"/>
      <point x="359" y="-46"/>
      <point x="314" y="-46" type="curve" smooth="yes"/>
      <point x="196" y="-46"/>
      <point x="123" y="32"/>
      <point x="123" y="161" type="curve" smooth="yes"/>
      <point x="123" y="307"/>
      <point x="210" y="417"/>
      <point x="326" y="417" type="curve" smooth="yes"/>
      <point x="434" y="417"/>
      <point x="505" y="333"/>
      <point x="505" y="207" type="curve" smooth="yes"/>
      <point x="505" y="105"/>
      <point x="481" y="37"/>
      <point x="447" y="37" type="curve" smooth="yes"/>
      <point x="431" y="37"/>
      <point x="422" y="58"/>
      <point x="422" y="93" type="curve" smooth="yes"/>
      <point x="422" y="109"/>
      <point x="423" y="125"/>
      <point x="435" y="275" type="curve" smooth="yes"/>
      <point x="436" y="288"/>
      <point x="438" y="295"/>
      <point x="444" y="302" type="curve" smooth="yes"/>
      <point x="449" y="311" type="line"/>
      <point x="444" y="319" type="line"/>
      <point x="410" y="322"/>
      <point x="358" y="332"/>
      <point x="323" y="332" type="curve" smooth="yes"/>
      <point x="231" y="332"/>
      <point x="172" y="267"/>
      <point x="172" y="166" type="curve" smooth="yes"/>
      <point x="172" y="101"/>
      <point x="202" y="59"/>
      <point x="250" y="59" type="curve" smooth="yes"/>
      <point x="291" y="59"/>
      <point x="321" y="83"/>
      <point x="346" y="136" type="curve"/>
      <point x="346" y="57"/>
      <point x="375" y="16"/>
      <point x="432" y="16" type="curve" smooth="yes"/>
      <point x="524" y="16"/>
      <point x="599" y="101"/>
      <point x="599" y="205" type="curve" smooth="yes"/>
    </contour>
  </outline>
</glyph>
<glyph name="F" format="1">
  <advance width="371"/>
  <unicode hex="0046"/>
  <outline>
    <contour>
      <point x="201" y="0" type="line"/>
      <point x="209" y="10" type="line"/>
      <point x="201" y="22" type="line" smooth="yes"/>
      <point x="179" y="52"/>
      <point x="171" y="78"/>
      <point x="171" y="131" type="curve" smooth="yes"/>
      <point x="171" y="217" type="line"/>
      <point x="214" y="217" type="line" smooth="yes"/>
      <point x="265" y="217"/>
      <point x="280" y="210"/>
      <point x="285" y="180" type="curve" smooth="yes"/>
      <point x="289" y="159" type="line"/>
      <point x="311" y="167" type="line"/>
      <point x="311" y="279" type="line"/>
      <point x="298" y="286" type="line"/>
      <point x="293" y="272" type="line" smooth="yes"/>
      <point x="285" y="252"/>
      <point x="269" y="242"/>
      <point x="242" y="242" type="curve" smooth="yes"/>
      <point x="171" y="242" type="line"/>
      <point x="171" y="392" type="line" smooth="yes"/>
      <point x="171" y="433"/>
      <point x="179" y="442"/>
      <point x="213" y="442" type="curve" smooth="yes"/>
      <point x="246" y="442" type="line" smooth="yes"/>
      <point x="291" y="442"/>
      <point x="309" y="418"/>
      <point x="332" y="348" type="curve"/>
      <point x="352" y="355" type="line"/>
      <point x="352" y="480" type="line"/>
      <point x="342" y="489" type="line"/>
      <point x="330" y="480" type="line" smooth="yes"/>
      <point x="317" y="471"/>
      <point x="295" y="467"/>
      <point x="256" y="467" type="curve" smooth="yes"/>
      <point x="46" y="467" type="line"/>
      <point x="38" y="456" type="line"/>
      <point x="46" y="445" type="line" smooth="yes"/>
      <point x="68" y="415"/>
      <point x="75" y="389"/>
      <point x="75" y="336" type="curve" smooth="yes"/>
      <point x="75" y="83" type="line" smooth="yes"/>
      <point x="75" y="39"/>
      <point x="67" y="31"/>
      <point x="20" y="18" type="curve"/>
      <point x="27" y="0" type="line"/>
    </contour>
  </outline>
</glyph>
<glyph name="G" format="1">
  <advance width="463"/>
  <unicode hex="0047"/>
  <outline>
    <contour>
      <point x="297" y="-9"/>
      <point x="348" y="13"/>
      <point x="387" y="57" type="curve"/>
      <point x="372" y="71" type="line"/>
      <point x="342" y="42"/>
      <point x="306" y="27"/>
      <point x="263" y="27" type="curve" smooth="yes"/>
      <point x="182" y="27"/>
      <point x="126" y="112"/>
      <point x="126" y="231" type="curve" smooth="yes"/>
      <point x="126" y="365"/>
      <point x="175" y="452"/>
      <point x="249" y="452" type="curve" smooth="yes"/>
      <point x="288" y="452"/>
      <point x="319" y="423"/>
      <point x="319" y="377" type="curve" smooth="yes"/>
      <point x="319" y="331"/>
      <point x="304" y="308"/>
      <point x="289" y="290" type="curve"/>
      <point x="356" y="290"/>
      <point x="412" y="322"/>
      <point x="412" y="380" type="curve" smooth="yes"/>
      <point x="412" y="437"/>
      <point x="348" y="476"/>
      <point x="256" y="476" type="curve" smooth="yes"/>
      <point x="112" y="476"/>
      <point x="21" y="381"/>
      <point x="21" y="231" type="curve" smooth="yes"/>
      <point x="21" y="84"/>
      <point x="105" y="-9"/>
      <point x="238" y="-9" type="curve" smooth="yes"/>
    </contour>
    <contour>
      <point x="410" y="0" type="line"/>
      <point x="410" y="86" type="line" smooth="yes"/>
      <point x="410" y="144"/>
      <point x="415" y="165"/>
      <point x="433" y="189" type="curve" smooth="yes"/>
      <point x="441" y="200" type="line"/>
      <point x="433" y="211" type="line"/>
      <point x="272" y="211" type="line"/>
      <point x="266" y="192" type="line"/>
      <point x="314" y="179"/>
      <point x="321" y="171"/>
      <point x="321" y="128" type="curve" smooth="yes"/>
      <point x="321" y="37" type="line"/>
      <point x="400" y="-4" type="line"/>
    </contour>
    <contour>
      <point x="247" y="467" type="move" name="top"/>
    </contour>
    <contour>
      <point x="232" y="0" type="move" name="bottom"/>
    </contour>
  </outline>
</glyph>
<glyph name="N" format="1">
  <advance width="490"/>
  <unicode hex="004E"/>
  <outline>
    <contour>
      <point x="402" y="57" type="line"/>
      <point x="165" y="467" type="line"/>
      <point x="35" y="467" type="line"/>
      <point x="27" y="454" type="line"/>
      <point x="63" y="423"/>
      <point x="70" y="406"/>
      <point x="70" y="347" type="curve" smooth="yes"/>
      <point x="70" y="83" type="line" smooth="yes"/>
      <point x="70" y="38"/>
      <point x="63" y="31"/>
      <point x="15" y="18" type="curve"/>
      <point x="22" y="0" type="line"/>
      <point x="132" y="0" type="line"/>
      <point x="141" y="10" type="line"/>
      <point x="132" y="22" type="line" smooth="yes"/>
      <point x="111" y="51"/>
      <point x="103" y="77"/>
      <point x="103" y="131" type="curve" smooth="yes"/>
      <point x="103" y="416" type="line"/>
      <point x="84" y="416" type="line"/>
      <point x="325" y="0" type="line"/>
      <point x="429" y="0" type="line"/>
      <point x="438" y="10" type="line"/>
      <point x="429" y="22" type="line" smooth="yes"/>
      <point x="423" y="31"/>
      <point x="420" y="40"/>
      <point x="420" y="57" type="curve" smooth="yes"/>
      <point x="420" y="336" type="line" smooth="yes"/>
      <point x="420" y="388"/>
      <point x="428" y="415"/>
      <point x="449" y="445" type="curve" smooth="yes"/>
      <point x="458" y="456" type="line"/>
      <point x="449" y="467" type="line"/>
      <point x="330" y="467" type="line"/>
      <point x="324" y="449" type="line"/>
      <point x="373" y="435"/>
      <point x="388" y="426"/>
      <point x="388" y="384" type="curve" smooth="yes"/>
      <point x="388" y="57" type="line"/>
    </contour>
    <contour>
      <point x="245" y="467" type="move" name="top"/>
    </contour>
    <contour>
      <point x="245" y="0" type="move" name="bottom"/>
    </contour>
  </outline>
</glyph>
<glyph name="P" format="1">
  <advance width="422"/>
  <unicode hex="0050"/>
  <outline>
    <contour>
      <point x="412" y="410"/>
      <point x="347" y="476"/>
      <point x="205" y="476" type="curve" smooth="yes"/>
      <point x="145" y="476"/>
      <point x="76" y="464"/>
      <point x="41" y="453" type="curve"/>
      <point x="37" y="440" type="line"/>
      <point x="49" y="433" type="line" smooth="yes"/>
      <point x="78" y="416"/>
      <point x="80" y="388"/>
      <point x="80" y="349" type="curve" smooth="yes"/>
      <point x="80" y="83" type="line" smooth="yes"/>
      <point x="80" y="38"/>
      <point x="73" y="31"/>
      <point x="25" y="18" type="curve"/>
      <point x="32" y="0" type="line"/>
      <point x="206" y="0" type="line"/>
      <point x="214" y="10" type="line"/>
      <point x="206" y="22" type="line" smooth="yes"/>
      <point x="184" y="52"/>
      <point x="176" y="77"/>
      <point x="176" y="131" type="curve" smooth="yes"/>
      <point x="176" y="410" type="line" smooth="yes"/>
      <point x="176" y="428"/>
      <point x="186" y="452"/>
      <point x="220" y="452" type="curve" smooth="yes"/>
      <point x="280" y="452"/>
      <point x="312" y="392"/>
      <point x="312" y="322" type="curve" smooth="yes"/>
      <point x="312" y="256"/>
      <point x="280" y="216"/>
      <point x="229" y="208" type="curve" smooth="yes"/>
      <point x="218" y="207"/>
      <point x="206" y="207"/>
      <point x="195" y="208" type="curve"/>
      <point x="193" y="199" type="line"/>
      <point x="214" y="187"/>
      <point x="241" y="179"/>
      <point x="267" y="179" type="curve" smooth="yes"/>
      <point x="339" y="179"/>
      <point x="412" y="231"/>
      <point x="412" y="321" type="curve" smooth="yes"/>
    </contour>
  </outline>
</glyph>
<glyph name="Q" format="1">
  <advance width="494"/>
  <unicode hex="0051"/>
  <outline>
    <contour>
      <point x="216" y="-2" type="line"/>
      <point x="266" y="-115"/>
      <point x="292" y="-166"/>
      <point x="373" y="-166" type="curve" smooth="yes"/>
      <point x="421" y="-166"/>
      <point x="449" y="-144"/>
      <point x="474" y="-105" type="curve"/>
      <point x="462" y="-96" type="line"/>
      <point x="444" y="-119"/>
      <point x="425" y="-132"/>
      <point x="397" y="-132" type="curve" smooth="yes"/>
      <point x="337" y="-132"/>
      <point x="324" y="-52"/>
      <point x="288" y="15" type="curve"/>
    </contour>
    <component base="O"/>
  </outline>
</glyph>
<glyph name="V" format="1">
  <advance width="452"/>
  <unicode hex="0056"/>
  <outline>
    <contour>
      <point x="242" y="41" type="line"/>
      <point x="267" y="41" type="line"/>
      <point x="154" y="380" type="line" smooth="yes"/>
      <point x="149" y="396"/>
      <point x="147" y="404"/>
      <point x="147" y="412" type="curve" smooth="yes"/>
      <point x="147" y="430"/>
      <point x="154" y="439"/>
      <point x="175" y="445" type="curve" smooth="yes"/>
      <point x="189" y="449" type="line"/>
      <point x="183" y="467" type="line"/>
      <point x="1" y="467" type="line"/>
      <point x="-7" y="456" type="line"/>
      <point x="26" y="431"/>
      <point x="38" y="414"/>
      <point x="51" y="377" type="curve" smooth="yes"/>
      <point x="179" y="0" type="line"/>
      <point x="266" y="0" type="line"/>
      <point x="392" y="377" type="line" smooth="yes"/>
      <point x="404" y="413"/>
      <point x="417" y="430"/>
      <point x="450" y="456" type="curve"/>
      <point x="442" y="467" type="line"/>
      <point x="322" y="467" type="line"/>
      <point x="315" y="449" type="line"/>
      <point x="333" y="442" type="line" smooth="yes"/>
      <point x="354" y="436"/>
      <point x="361" y="427"/>
      <point x="361" y="411" type="curve" smooth="yes"/>
      <point x="361" y="404"/>
      <point x="359" y="394"/>
      <point x="354" y="378" type="curve" smooth="yes"/>
    </contour>
  </outline>
</glyph>
<glyph name="g" format="1">
  <advance width="397"/>
  <unicode hex="0067"/>
  <outline>
    <contour>
      <point x="134" y="-73"/>
      <point x="140" y="-57"/>
      <point x="152" y="-45" type="curve"/>
      <point x="141" y="-40"/>
      <point x="128" y="-37"/>
      <point x="115" y="-37" type="curve" smooth="yes"/>
      <point x="80" y="-37"/>
      <point x="57" y="-61"/>
      <point x="57" y="-97" type="curve" smooth="yes"/>
      <point x="57" y="-138"/>
      <point x="103" y="-166"/>
      <point x="169" y="-166" type="curve" smooth="yes"/>
      <point x="277" y="-166"/>
      <point x="341" y="-105"/>
      <point x="341" y="0" type="curve" smooth="yes"/>
      <point x="341" y="270" type="line" smooth="yes"/>
      <point x="341" y="280"/>
      <point x="343" y="286"/>
      <point x="350" y="295" type="curve" smooth="yes"/>
      <point x="358" y="307" type="line"/>
      <point x="350" y="315" type="line"/>
      <point x="304" y="319"/>
      <point x="255" y="332"/>
      <point x="211" y="332" type="curve" smooth="yes"/>
      <point x="100" y="332"/>
      <point x="30" y="265"/>
      <point x="30" y="159" type="curve" smooth="yes"/>
      <point x="30" y="70"/>
      <point x="74" y="10"/>
      <point x="140" y="10" type="curve" smooth="yes"/>
      <point x="184" y="10"/>
      <point x="219" y="28"/>
      <point x="252" y="67" type="curve"/>
      <point x="252" y="-30" type="line" smooth="yes"/>
      <point x="252" y="-106"/>
      <point x="229" y="-144"/>
      <point x="182" y="-144" type="curve" smooth="yes"/>
      <point x="154" y="-144"/>
      <point x="134" y="-123"/>
      <point x="134" y="-94" type="curve" smooth="yes"/>
    </contour>
    <contour>
      <point x="151" y="58"/>
      <point x="130" y="101"/>
      <point x="130" y="178" type="curve" smooth="yes"/>
      <point x="130" y="264"/>
      <point x="157" y="309"/>
      <point x="207" y="309" type="curve" smooth="yes"/>
      <point x="221" y="309"/>
      <point x="237" y="305"/>
      <point x="251" y="299" type="curve"/>
      <point x="251" y="100" type="line"/>
      <point x="236" y="73"/>
      <point x="214" y="58"/>
      <point x="188" y="58" type="curve" smooth="yes"/>
    </contour>
    <contour>
      <point x="205" y="325" type="move" name="top"/>
    </contour>
    <contour>
      <point x="199" y="0" type="move" name="bottom"/>
    </contour>
  </outline>
</glyph>
<glyph name="l" format="1">
  <advance width="205"/>
  <unicode hex="006C"/>
  <outline>
    <contour>
      <point x="142" y="469" type="line" smooth="yes"/>
      <point x="142" y="482"/>
      <point x="131" y="490"/>
      <point x="114" y="490" type="curve" smooth="yes"/>
      <point x="74" y="490"/>
      <point x="30" y="475"/>
      <point x="4" y="451" type="curve"/>
      <point x="7" y="441" type="line"/>
      <point x="39" y="441" type="line" smooth="yes"/>
      <point x="48" y="441"/>
      <point x="52" y="437"/>
      <point x="52" y="427" type="curve" smooth="yes"/>
      <point x="52" y="60" type="line" smooth="yes"/>
      <point x="52" y="12"/>
      <point x="72" y="-9"/>
      <point x="119" y="-9" type="curve" smooth="yes"/>
      <point x="153" y="-9"/>
      <point x="182" y="4"/>
      <point x="206" y="32" type="curve"/>
      <point x="198" y="42" type="line"/>
      <point x="187" y="33"/>
      <point x="174" y="27"/>
      <point x="161" y="27" type="curve" smooth="yes"/>
      <point x="149" y="27"/>
      <point x="142" y="37"/>
      <point x="142" y="57" type="curve" smooth="yes"/>
    </contour>
    <contour>
      <point x="103" y="0" type="move" name="bottom"/>
    </contour>
    <contour>
      <point x="93" y="467" type="move" name="top"/>
    </contour>
    <contour>
      <point x="158" y="325" type="move" name="topright"/>
    </contour>
    <contour>
      <point x="103" y="247" type="move" name="center"/>
    </contour>
  </outline>
</glyph>
<glyph name="o" format="1">
  <advance width="385"/>
  <unicode hex="006F"/>
  <outline>
    <contour>
      <point x="261" y="73"/>
      <point x="232" y="13"/>
      <point x="190" y="13" type="curve" smooth="yes"/>
      <point x="148" y="13"/>
      <point x="122" y="70"/>
      <point x="122" y="161" type="curve" smooth="yes"/>
      <point x="122" y="250"/>
      <point x="151" y="311"/>
      <point x="194" y="311" type="curve" smooth="yes"/>
      <point x="233" y="311"/>
      <point x="261" y="248"/>
      <point x="261" y="159" type="curve" smooth="yes"/>
    </contour>
    <contour>
      <point x="23" y="57"/>
      <point x="88" y="-9"/>
      <point x="192" y="-9" type="curve" smooth="yes"/>
      <point x="296" y="-9"/>
      <point x="362" y="57"/>
      <point x="362" y="161" type="curve" smooth="yes"/>
      <point x="362" y="265"/>
      <point x="297" y="332"/>
      <point x="192" y="332" type="curve" smooth="yes"/>
      <point x="88" y="332"/>
      <point x="23" y="266"/>
      <point x="23" y="161" type="curve" smooth="yes"/>
    </contour>
    <contour>
      <point x="192" y="0" type="move" name="bottom"/>
    </contour>
    <contour>
      <point x="346" y="7" type="move" name="ogonek"/>
    </contour>
    <contour>
      <point x="192" y="325" type="move" name="top"/>
    </contour>
    <contour>
      <point x="372" y="325" type="move" name="topright"/>
    </contour>
    <contour>
      <point x="192" y="163" type="move" name="center"/>
    </contour>
  </outline>
</glyph>
<glyph name="p" format="1">
  <advance width="399"/>
  <unicode hex="0070"/>
  <outline>
    <contour>
      <point x="177" y="23"/>
      <point x="158" y="28"/>
      <point x="145" y="38" type="curve"/>
      <point x="140" y="31" type="line"/>
      <point x="160" y="8"/>
      <point x="194" y="-6"/>
      <point x="230" y="-6" type="curve" smooth="yes"/>
      <point x="315" y="-6"/>
      <point x="376" y="68"/>
      <point x="376" y="171" type="curve" smooth="yes"/>
      <point x="376" y="267"/>
      <point x="330" y="332"/>
      <point x="262" y="332" type="curve" smooth="yes"/>
      <point x="217" y="332"/>
      <point x="182" y="311"/>
      <point x="148" y="263" type="curve"/>
      <point x="148" y="307" type="line" smooth="yes"/>
      <point x="148" y="320"/>
      <point x="137" y="329"/>
      <point x="120" y="329" type="curve" smooth="yes"/>
      <point x="81" y="329"/>
      <point x="36" y="313"/>
      <point x="11" y="290" type="curve"/>
      <point x="14" y="279" type="line"/>
      <point x="45" y="279" type="line" smooth="yes"/>
      <point x="53" y="279"/>
      <point x="58" y="273"/>
      <point x="58" y="261" type="curve" smooth="yes"/>
      <point x="58" y="-53" type="line"/>
      <point x="58" y="-94"/>
      <point x="53" y="-115"/>
      <point x="37" y="-137" type="curve" smooth="yes"/>
      <point x="29" y="-147" type="line"/>
      <point x="37" y="-157" type="line"/>
      <point x="192" y="-157" type="line"/>
      <point x="198" y="-140" type="line"/>
      <point x="185" y="-137" type="line" smooth="yes"/>
      <point x="153" y="-130"/>
      <point x="148" y="-123"/>
      <point x="148" y="-91" type="curve" smooth="yes"/>
      <point x="148" y="230" type="line"/>
      <point x="165" y="265"/>
      <point x="187" y="283"/>
      <point x="214" y="283" type="curve" smooth="yes"/>
      <point x="254" y="283"/>
      <point x="276" y="240"/>
      <point x="276" y="161" type="curve" smooth="yes"/>
      <point x="276" y="71"/>
      <point x="247" y="23"/>
      <point x="192" y="23" type="curve" smooth="yes"/>
    </contour>
  </outline>
</glyph>
<glyph name="q" format="1">
  <advance width="405"/>
  <unicode hex="0071"/>
  <outline>
    <contour>
      <point x="123" y="259"/>
      <point x="152" y="309"/>
      <point x="206" y="309" type="curve" smooth="yes"/>
      <point x="222" y="309"/>
      <point x="237" y="305"/>
      <point x="250" y="300" type="curve"/>
      <point x="250" y="81" type="line"/>
      <point x="235" y="54"/>
      <point x="213" y="39"/>
      <point x="188" y="39" type="curve" smooth="yes"/>
      <point x="146" y="39"/>
      <point x="123" y="82"/>
      <point x="123" y="161" type="curve" smooth="yes"/>
    </contour>
    <contour>
      <point x="251" y="-91" type="line" smooth="yes"/>
      <point x="251" y="-123"/>
      <point x="245" y="-130"/>
      <point x="212" y="-137" type="curve" smooth="yes"/>
      <point x="198" y="-140" type="line"/>
      <point x="205" y="-157" type="line"/>
      <point x="361" y="-157" type="line"/>
      <point x="369" y="-147" type="line"/>
      <point x="361" y="-137" type="line" smooth="yes"/>
      <point x="346" y="-115"/>
      <point x="341" y="-94"/>
      <point x="341" y="-53" type="curve" smooth="yes"/>
      <point x="341" y="270" type="line" smooth="yes"/>
      <point x="341" y="280"/>
      <point x="342" y="286"/>
      <point x="349" y="295" type="curve" smooth="yes"/>
      <point x="357" y="307" type="line"/>
      <point x="350" y="315" type="line"/>
      <point x="303" y="319"/>
      <point x="254" y="332"/>
      <point x="210" y="332" type="curve" smooth="yes"/>
      <point x="95" y="332"/>
      <point x="23" y="261"/>
      <point x="23" y="149" type="curve" smooth="yes"/>
      <point x="23" y="55"/>
      <point x="69" y="-9"/>
      <point x="136" y="-9" type="curve" smooth="yes"/>
      <point x="181" y="-9"/>
      <point x="217" y="9"/>
      <point x="251" y="49" type="curve"/>
    </contour>
  </outline>
</glyph>
<glyph name="u" format="1">
  <advance width="429"/>
  <unicode hex="0075"/>
  <outline>
    <contour>
      <point x="268" y="16"/>
      <point x="285" y="-9"/>
      <point x="335" y="-9" type="curve" smooth="yes"/>
      <point x="370" y="-9"/>
      <point x="398" y="4"/>
      <point x="422" y="32" type="curve"/>
      <point x="414" y="42" type="line"/>
      <point x="403" y="33"/>
      <point x="390" y="27"/>
      <point x="377" y="27" type="curve" smooth="yes"/>
      <point x="365" y="27"/>
      <point x="359" y="37"/>
      <point x="359" y="57" type="curve" smooth="yes"/>
      <point x="359" y="330" type="line"/>
      <point x="244" y="321" type="line"/>
      <point x="236" y="312" type="line"/>
      <point x="245" y="301" type="line" smooth="yes"/>
      <point x="264" y="279"/>
      <point x="270" y="254"/>
      <point x="270" y="203" type="curve" smooth="yes"/>
      <point x="270" y="105"/>
      <point x="237" y="39"/>
      <point x="188" y="39" type="curve" smooth="yes"/>
      <point x="164" y="39"/>
      <point x="150" y="64"/>
      <point x="150" y="110" type="curve" smooth="yes"/>
      <point x="150" y="310" type="line" smooth="yes"/>
      <point x="150" y="323"/>
      <point x="139" y="332"/>
      <point x="122" y="332" type="curve" smooth="yes"/>
      <point x="83" y="332"/>
      <point x="39" y="316"/>
      <point x="13" y="293" type="curve"/>
      <point x="16" y="282" type="line"/>
      <point x="47" y="282" type="line" smooth="yes"/>
      <point x="56" y="282"/>
      <point x="60" y="278"/>
      <point x="60" y="268" type="curve" smooth="yes"/>
      <point x="60" y="105" type="line" smooth="yes"/>
      <point x="60" y="28"/>
      <point x="88" y="-9"/>
      <point x="146" y="-9" type="curve" smooth="yes"/>
      <point x="198" y="-9"/>
      <point x="249" y="32"/>
      <point x="268" y="91" type="curve"/>
    </contour>
    <contour>
      <point x="393" y="7" type="move" name="ogonek"/>
    </contour>
    <contour>
      <point x="214" y="325" type="move" name="top"/>
    </contour>
    <contour>
      <point x="416" y="325" type="move" name="topright"/>
    </contour>
    <contour>
      <point x="214" y="0" type="move" name="bottom"/>
    </contour>
  </outline>
</glyph>
<glyph name="asciitilde" format="1">
  <advance width="404"/>
  <unicode hex="007E"/>
  <outline>
    <contour>
      <point x="339" y="259" type="line"/>
      <point x="322" y="274"/>
      <point x="299" y="280"/>
      <point x="276" y="280" type="curve" smooth="yes"/>
      <point x="221" y="280"/>
      <point x="184" y="238"/>
      <point x="130" y="238" type="curve" smooth="yes"/>
      <point x="107" y="238"/>
      <point x="84" y="245"/>
      <point x="64" y="259" type="curve"/>
      <point x="64" y="209" type="line"/>
      <point x="82" y="195"/>
      <point x="105" y="189"/>
      <point x="127" y="189" type="curve" smooth="yes"/>
      <point x="183" y="189"/>
      <point x="220" y="231"/>
      <point x="274" y="231" type="curve" smooth="yes"/>
      <point x="297" y="231"/>
      <point x="320" y="223"/>
      <point x="339" y="209" type="curve"/>
    </contour>
  </outline>
</glyph>
<glyph name="sterling" format="1">
  <advance width="398"/>
  <unicode hex="00A3"/>
  <outline>
    <contour>
      <point x="113" y="476"/>
      <point x="64" y="414"/>
      <point x="64" y="332" type="curve" smooth="yes"/>
      <point x="64" y="270"/>
      <point x="96" y="218"/>
      <point x="96" y="161" type="curve" smooth="yes"/>
      <point x="96" y="114"/>
      <point x="68" y="60"/>
      <point x="20" y="28" type="curve"/>
      <point x="37" y="0" type="line"/>
      <point x="353" y="0" type="line"/>
      <point x="370" y="17"/>
      <point x="375" y="49"/>
      <point x="375" y="74" type="curve"/>
      <point x="111" y="74" type="line"/>
      <point x="168" y="107"/>
      <point x="175" y="155"/>
      <point x="175" y="196" type="curve" smooth="yes"/>
      <point x="175" y="236"/>
      <point x="165" y="278"/>
      <point x="165" y="322" type="curve" smooth="yes"/>
      <point x="165" y="434"/>
      <point x="200" y="452"/>
      <point x="231" y="452" type="curve" smooth="yes"/>
      <point x="263" y="452"/>
      <point x="289" y="423"/>
      <point x="289" y="382" type="curve" smooth="yes"/>
      <point x="289" y="351"/>
      <point x="281" y="316"/>
      <point x="260" y="294" type="curve"/>
      <point x="319" y="296"/>
      <point x="376" y="326"/>
      <point x="376" y="384" type="curve" smooth="yes"/>
      <point x="376" y="438"/>
      <point x="317" y="476"/>
      <point x="233" y="476" type="curve" smooth="yes"/>
    </contour>
    <contour>
      <point x="283" y="192" type="line"/>
      <point x="295" y="198"/>
      <point x="298" y="210"/>
      <point x="298" y="220" type="curve"/>
      <point x="46" y="220" type="line"/>
      <point x="34" y="214"/>
      <point x="31" y="202"/>
      <point x="31" y="192" type="curve"/>
    </contour>
  </outline>
</glyph>
<glyph name="copyright" format="1">
  <advance width="441"/>
  <unicode hex="00A9"/>
  <outline>
    <contour>
      <point x="312" y="245" type="line"/>
      <point x="297" y="228"/>
      <point x="276" y="212"/>
      <point x="243" y="212" type="curve" smooth="yes"/>
      <point x="196" y="212"/>
      <point x="166" y="263"/>
      <point x="166" y="324" type="curve" smooth="yes"/>
      <point x="166" y="380"/>
      <point x="181" y="443"/>
      <point x="225" y="443" type="curve" smooth="yes"/>
      <point x="249" y="443"/>
      <point x="260" y="423"/>
      <point x="260" y="398" type="curve" smooth="yes"/>
      <point x="260" y="379"/>
      <point x="254" y="358"/>
      <point x="244" y="349" type="curve"/>
      <point x="244" y="343" type="line"/>
      <point x="284" y="344"/>
      <point x="314" y="363"/>
      <point x="314" y="401" type="curve" smooth="yes"/>
      <point x="314" y="434"/>
      <point x="280" y="457"/>
      <point x="230" y="457" type="curve" smooth="yes"/>
      <point x="146" y="457"/>
      <point x="108" y="397"/>
      <point x="108" y="324" type="curve" smooth="yes"/>
      <point x="108" y="252"/>
      <point x="146" y="192"/>
      <point x="229" y="192" type="curve" smooth="yes"/>
      <point x="270" y="192"/>
      <point x="299" y="214"/>
      <point x="318" y="240" type="curve"/>
    </contour>
    <contour>
      <point x="49" y="418"/>
      <point x="126" y="495"/>
      <point x="220" y="495" type="curve" smooth="yes"/>
      <point x="315" y="495"/>
      <point x="391" y="418"/>
      <point x="391" y="324" type="curve" smooth="yes"/>
      <point x="391" y="229"/>
      <point x="315" y="153"/>
      <point x="220" y="153" type="curve" smooth="yes"/>
      <point x="126" y="153"/>
      <point x="49" y="229"/>
      <point x="49" y="324" type="curve" smooth="yes"/>
    </contour>
    <contour>
      <point x="33" y="220"/>
      <point x="117" y="136"/>
      <point x="220" y="136" type="curve" smooth="yes"/>
      <point x="324" y="136"/>
      <point x="408" y="220"/>
      <point x="408" y="324" type="curve" smooth="yes"/>
      <point x="408" y="427"/>
      <point x="324" y="512"/>
      <point x="220" y="512" type="curve" smooth="yes"/>
      <point x="117" y="512"/>
      <point x="33" y="427"/>
      <point x="33" y="324" type="curve" smooth="yes"/>
    </contour>
  </outline>
</glyph>
<glyph name="ordfeminine" format="1">
  <advance width="270"/>
  <unicode hex="00AA"/>
  <outline>
    <contour>
      <point x="151" y="281" type="line"/>
      <point x="155" y="252"/>
      <point x="171" y="235"/>
      <point x="207" y="235" type="curve" smooth="yes"/>
      <point x="231" y="235"/>
      <point x="252" y="246"/>
      <point x="269" y="265" type="curve"/>
      <point x="261" y="276" type="line"/>
      <point x="251" y="267"/>
      <point x="241" y="263"/>
      <point x="234" y="263" type="curve" smooth="yes"/>
      <point x="228" y="263"/>
      <point x="224" y="269"/>
      <point x="224" y="283" type="curve" smooth="yes"/>
      <point x="224" y="402" type="line" smooth="yes"/>
      <point x="224" y="450"/>
      <point x="180" y="476"/>
      <point x="120" y="476" type="curve" smooth="yes"/>
      <point x="67" y="476"/>
      <point x="29" y="454"/>
      <point x="29" y="422" type="curve" smooth="yes"/>
      <point x="29" y="395"/>
      <point x="55" y="382"/>
      <point x="108" y="382" type="curve"/>
      <point x="109" y="389" type="line"/>
      <point x="97" y="396"/>
      <point x="92" y="409"/>
      <point x="92" y="421" type="curve" smooth="yes"/>
      <point x="92" y="439"/>
      <point x="100" y="457"/>
      <point x="120" y="457" type="curve" smooth="yes"/>
      <point x="138" y="457"/>
      <point x="148" y="437"/>
      <point x="148" y="395" type="curve" smooth="yes"/>
      <point x="148" y="365" type="line"/>
      <point x="139" y="367"/>
      <point x="124" y="368"/>
      <point x="112" y="368" type="curve" smooth="yes"/>
      <point x="64" y="368"/>
      <point x="14" y="350"/>
      <point x="14" y="295" type="curve" smooth="yes"/>
      <point x="14" y="255"/>
      <point x="43" y="235"/>
      <point x="76" y="235" type="curve" smooth="yes"/>
      <point x="98" y="235"/>
      <point x="126" y="245"/>
      <point x="147" y="281" type="curve"/>
    </contour>
    <contour>
      <point x="96" y="275"/>
      <point x="89" y="292"/>
      <point x="89" y="311" type="curve" smooth="yes"/>
      <point x="89" y="341"/>
      <point x="106" y="352"/>
      <point x="124" y="352" type="curve" smooth="yes"/>
      <point x="132" y="352"/>
      <point x="142" y="350"/>
      <point x="149" y="347" type="curve"/>
      <point x="148" y="296"/>
      <point x="128" y="275"/>
      <point x="111" y="275" type="curve" smooth="yes"/>
    </contour>
  </outline>
</glyph>
<glyph name="multiply" format="1">
  <advance width="404"/>
  <unicode hex="00D7"/>
  <outline>
    <contour>
      <point x="108" y="103" type="line"/>
      <point x="202" y="197" type="line"/>
      <point x="296" y="103" type="line"/>
      <point x="331" y="138" type="line"/>
      <point x="237" y="232" type="line"/>
      <point x="331" y="326" type="line"/>
      <point x="296" y="361" type="line"/>
      <point x="202" y="267" type="line"/>
      <point x="108" y="361" type="line"/>
      <point x="73" y="326" type="line"/>
      <point x="166" y="232" type="line"/>
      <point x="73" y="138" type="line"/>
    </contour>
  </outline>
</glyph>
<glyph name="Thorn" format="1">
  <advance width="418"/>
  <unicode hex="00DE"/>
  <outline>
    <contour>
      <point x="412" y="321"/>
      <point x="343" y="382"/>
      <point x="235" y="382" type="curve" smooth="yes"/>
      <point x="214" y="382"/>
      <point x="196" y="379"/>
      <point x="178" y="373" type="curve"/>
      <point x="180" y="423"/>
      <point x="186" y="432"/>
      <point x="222" y="451" type="curve"/>
      <point x="215" y="467" type="line"/>
      <point x="32" y="467" type="line"/>
      <point x="24" y="454" type="line"/>
      <point x="72" y="418"/>
      <point x="81" y="404"/>
      <point x="81" y="342" type="curve" smooth="yes"/>
      <point x="81" y="83" type="line" smooth="yes"/>
      <point x="81" y="39"/>
      <point x="72" y="31"/>
      <point x="25" y="18" type="curve"/>
      <point x="32" y="0" type="line"/>
      <point x="206" y="0" type="line"/>
      <point x="214" y="10" type="line"/>
      <point x="184" y="51"/>
      <point x="177" y="72"/>
      <point x="177" y="131" type="curve" smooth="yes"/>
      <point x="177" y="320" type="line" smooth="yes"/>
      <point x="177" y="343"/>
      <point x="194" y="358"/>
      <point x="220" y="358" type="curve" smooth="yes"/>
      <point x="276" y="358"/>
      <point x="312" y="307"/>
      <point x="312" y="229" type="curve" smooth="yes"/>
      <point x="312" y="165"/>
      <point x="282" y="123"/>
      <point x="230" y="115" type="curve" smooth="yes"/>
      <point x="218" y="113"/>
      <point x="207" y="114"/>
      <point x="195" y="116" type="curve"/>
      <point x="193" y="106" type="line"/>
      <point x="212" y="95"/>
      <point x="243" y="86"/>
      <point x="268" y="86" type="curve" smooth="yes"/>
      <point x="350" y="86"/>
      <point x="412" y="147"/>
      <point x="412" y="228" type="curve" smooth="yes"/>
    </contour>
  </outline>
</glyph>
<glyph name="germandbls" format="1">
  <advance width="426"/>
  <unicode hex="00DF"/>
  <outline>
    <contour>
      <point x="370" y="-9"/>
      <point x="416" y="34"/>
      <point x="416" y="94" type="curve" smooth="yes"/>
      <point x="416" y="137"/>
      <point x="395" y="171"/>
      <point x="345" y="205" type="curve" smooth="yes"/>
      <point x="294" y="241" type="line" smooth="yes"/>
      <point x="270" y="257"/>
      <point x="261" y="269"/>
      <point x="261" y="283" type="curve" smooth="yes"/>
      <point x="261" y="333"/>
      <point x="348" y="352"/>
      <point x="348" y="412" type="curve" smooth="yes"/>
      <point x="348" y="460"/>
      <point x="304" y="490"/>
      <point x="234" y="490" type="curve" smooth="yes"/>
      <point x="127" y="490"/>
      <point x="61" y="418"/>
      <point x="61" y="300" type="curve" smooth="yes"/>
      <point x="61" y="76" type="line"/>
      <point x="61" y="39"/>
      <point x="54" y="27"/>
      <point x="30" y="21" type="curve" smooth="yes"/>
      <point x="16" y="17" type="line"/>
      <point x="22" y="0" type="line"/>
      <point x="177" y="0" type="line"/>
      <point x="185" y="10" type="line"/>
      <point x="177" y="21" type="line" smooth="yes"/>
      <point x="159" y="45"/>
      <point x="153" y="68"/>
      <point x="153" y="113" type="curve" smooth="yes"/>
      <point x="153" y="334" type="line" smooth="yes"/>
      <point x="153" y="418"/>
      <point x="177" y="466"/>
      <point x="217" y="466" type="curve" smooth="yes"/>
      <point x="245" y="466"/>
      <point x="261" y="445"/>
      <point x="261" y="407" type="curve" smooth="yes"/>
      <point x="261" y="337"/>
      <point x="186" y="303"/>
      <point x="186" y="252" type="curve" smooth="yes"/>
      <point x="186" y="221"/>
      <point x="196" y="204"/>
      <point x="235" y="176" type="curve" smooth="yes"/>
      <point x="281" y="144" type="line" smooth="yes"/>
      <point x="311" y="124"/>
      <point x="325" y="102"/>
      <point x="325" y="77" type="curve" smooth="yes"/>
      <point x="325" y="45"/>
      <point x="302" y="25"/>
      <point x="265" y="25" type="curve" smooth="yes"/>
      <point x="245" y="25"/>
      <point x="223" y="31"/>
      <point x="208" y="41" type="curve"/>
      <point x="200" y="30" type="line"/>
      <point x="228" y="2"/>
      <point x="267" y="-9"/>
      <point x="303" y="-9" type="curve" smooth="yes"/>
    </contour>
  </outline>
</glyph>
<glyph name="eng" format="1">
  <advance width="406"/>
  <unicode hex="014B"/>
  <outline>
    <contour>
      <point x="240" y="332"/>
      <point x="184" y="289"/>
      <point x="163" y="222" type="curve"/>
      <point x="163" y="308" type="line" smooth="yes"/>
      <point x="163" y="321"/>
      <point x="152" y="330"/>
      <point x="135" y="330" type="curve" smooth="yes"/>
      <point x="95" y="330"/>
      <point x="50" y="313"/>
      <point x="25" y="291" type="curve"/>
      <point x="28" y="280" type="line"/>
      <point x="60" y="280" type="line" smooth="yes"/>
      <point x="69" y="280"/>
      <point x="73" y="272"/>
      <point x="73" y="261" type="curve" smooth="yes"/>
      <point x="73" y="66" type="line" smooth="yes"/>
      <point x="73" y="33"/>
      <point x="69" y="25"/>
      <point x="47" y="20" type="curve" smooth="yes"/>
      <point x="33" y="17" type="line"/>
      <point x="39" y="0" type="line"/>
      <point x="184" y="0" type="line"/>
      <point x="192" y="10" type="line"/>
      <point x="184" y="20" type="line"/>
      <point x="169" y="42"/>
      <point x="163" y="63"/>
      <point x="163" y="104" type="curve" smooth="yes"/>
      <point x="163" y="209"/>
      <point x="196" y="281"/>
      <point x="244" y="281" type="curve" smooth="yes"/>
      <point x="267" y="281"/>
      <point x="279" y="261"/>
      <point x="279" y="223" type="curve" smooth="yes"/>
      <point x="279" y="-77" type="line" smooth="yes"/>
      <point x="279" y="-122"/>
      <point x="266" y="-143"/>
      <point x="243" y="-143" type="curve" smooth="yes"/>
      <point x="219" y="-143"/>
      <point x="210" y="-120"/>
      <point x="210" y="-95" type="curve" smooth="yes"/>
      <point x="210" y="-76"/>
      <point x="216" y="-56"/>
      <point x="228" y="-45" type="curve"/>
      <point x="217" y="-40"/>
      <point x="204" y="-37"/>
      <point x="191" y="-37" type="curve" smooth="yes"/>
      <point x="156" y="-37"/>
      <point x="133" y="-61"/>
      <point x="133" y="-97" type="curve" smooth="yes"/>
      <point x="133" y="-139"/>
      <point x="176" y="-166"/>
      <point x="237" y="-166" type="curve" smooth="yes"/>
      <point x="318" y="-166"/>
      <point x="371" y="-109"/>
      <point x="371" y="0" type="curve" smooth="yes"/>
      <point x="371" y="215" type="line" smooth="yes"/>
      <point x="371" y="296"/>
      <point x="346" y="332"/>
      <point x="289" y="332" type="curve" smooth="yes"/>
    </contour>
  </outline>
</glyph>
<glyph name="OE" format="1">
  <advance width="643"/>
  <unicode hex="0152"/>
  <outline>
    <contour>
      <point x="606" y="-8" type="line"/>
      <point x="606" y="112" type="line"/>
      <point x="587" y="119" type="line"/>
      <point x="565" y="51"/>
      <point x="545" y="25"/>
      <point x="506" y="25" type="curve" smooth="yes"/>
      <point x="457" y="25" type="line" smooth="yes"/>
      <point x="415" y="25"/>
      <point x="408" y="34"/>
      <point x="408" y="74" type="curve" smooth="yes"/>
      <point x="408" y="225" type="line"/>
      <point x="458" y="225" type="line" smooth="yes"/>
      <point x="510" y="225"/>
      <point x="532" y="216"/>
      <point x="537" y="188" type="curve" smooth="yes"/>
      <point x="541" y="166" type="line"/>
      <point x="563" y="174" type="line"/>
      <point x="563" y="286" type="line"/>
      <point x="550" y="294" type="line"/>
      <point x="545" y="280" type="line" smooth="yes"/>
      <point x="536" y="256"/>
      <point x="519" y="250"/>
      <point x="479" y="250" type="curve" smooth="yes"/>
      <point x="408" y="250" type="line"/>
      <point x="408" y="392" type="line" smooth="yes"/>
      <point x="408" y="433"/>
      <point x="416" y="442"/>
      <point x="450" y="442" type="curve" smooth="yes"/>
      <point x="494" y="442" type="line" smooth="yes"/>
      <point x="538" y="442"/>
      <point x="557" y="418"/>
      <point x="579" y="348" type="curve"/>
      <point x="599" y="355" type="line"/>
      <point x="599" y="480" type="line"/>
      <point x="589" y="489" type="line"/>
      <point x="577" y="480" type="line" smooth="yes"/>
      <point x="565" y="471"/>
      <point x="543" y="467"/>
      <point x="503" y="467" type="curve" smooth="yes"/>
      <point x="254" y="467" type="line"/>
      <point x="110" y="467"/>
      <point x="21" y="376"/>
      <point x="21" y="233" type="curve" smooth="yes"/>
      <point x="21" y="90"/>
      <point x="110" y="0"/>
      <point x="254" y="0" type="curve"/>
      <point x="515" y="0" type="line" smooth="yes"/>
      <point x="554" y="0"/>
      <point x="578" y="-3"/>
      <point x="597" y="-17" type="curve"/>
    </contour>
    <contour>
      <point x="174" y="21"/>
      <point x="122" y="104"/>
      <point x="122" y="230" type="curve" smooth="yes"/>
      <point x="122" y="360"/>
      <point x="173" y="447"/>
      <point x="250" y="447" type="curve" smooth="yes"/>
      <point x="273" y="447"/>
      <point x="294" y="441"/>
      <point x="311" y="430" type="curve"/>
      <point x="311" y="35" type="line"/>
      <point x="293" y="25"/>
      <point x="275" y="21"/>
      <point x="251" y="21" type="curve" smooth="yes"/>
    </contour>
    <contour>
      <point x="322" y="467" type="move" name="top"/>
    </contour>
    <contour>
      <point x="322" y="0" type="move" name="bottom"/>
    </contour>
  </outline>
</glyph>
<glyph name="oe" format="1">
  <advance width="583"/>
  <unicode hex="0153"/>
  <outline>
    <contour>
      <point x="402" y="24"/>
      <point x="367" y="67"/>
      <point x="360" y="136" type="curve"/>
      <point x="377" y="133"/>
      <point x="394" y="132"/>
      <point x="411" y="132" type="curve" smooth="yes"/>
      <point x="504" y="132"/>
      <point x="562" y="173"/>
      <point x="562" y="237" type="curve" smooth="yes"/>
      <point x="562" y="293"/>
      <point x="509" y="332"/>
      <point x="435" y="332" type="curve" smooth="yes"/>
      <point x="382" y="332"/>
      <point x="339" y="315"/>
      <point x="309" y="286" type="curve"/>
      <point x="281" y="315"/>
      <point x="241" y="332"/>
      <point x="192" y="332" type="curve" smooth="yes"/>
      <point x="88" y="332"/>
      <point x="23" y="266"/>
      <point x="23" y="161" type="curve" smooth="yes"/>
      <point x="23" y="57"/>
      <point x="88" y="-9"/>
      <point x="192" y="-9" type="curve" smooth="yes"/>
      <point x="241" y="-9"/>
      <point x="281" y="7"/>
      <point x="309" y="37" type="curve"/>
      <point x="337" y="8"/>
      <point x="377" y="-9"/>
      <point x="422" y="-9" type="curve" smooth="yes"/>
      <point x="478" y="-9"/>
      <point x="527" y="17"/>
      <point x="558" y="61" type="curve"/>
      <point x="546" y="70" type="line"/>
      <point x="518" y="37"/>
      <point x="490" y="24"/>
      <point x="452" y="24" type="curve" smooth="yes"/>
    </contour>
    <contour>
      <point x="148" y="13"/>
      <point x="122" y="70"/>
      <point x="122" y="161" type="curve" smooth="yes"/>
      <point x="122" y="250"/>
      <point x="151" y="311"/>
      <point x="194" y="311" type="curve" smooth="yes"/>
      <point x="233" y="311"/>
      <point x="261" y="248"/>
      <point x="261" y="159" type="curve" smooth="yes"/>
      <point x="261" y="73"/>
      <point x="232" y="13"/>
      <point x="190" y="13" type="curve" smooth="yes"/>
    </contour>
    <contour>
      <point x="452" y="308"/>
      <point x="472" y="279"/>
      <point x="472" y="239" type="curve" smooth="yes"/>
      <point x="472" y="190"/>
      <point x="441" y="159"/>
      <point x="385" y="152" type="curve" smooth="yes"/>
      <point x="377" y="151"/>
      <point x="368" y="150"/>
      <point x="358" y="150" type="curve"/>
      <point x="358" y="166" type="line" smooth="yes"/>
      <point x="358" y="255"/>
      <point x="383" y="308"/>
      <point x="424" y="308" type="curve" smooth="yes"/>
    </contour>
    <contour>
      <point x="292" y="325" type="move" name="top"/>
    </contour>
    <contour>
      <point x="292" y="0" type="move" name="bottom"/>
    </contour>
  </outline>
</glyph>
<glyph name="florin" format="1">
  <advance width="302"/>
  <unicode hex="0192"/>
  <outline>
    <contour>
      <point x="254" y="203" type="line"/>
      <point x="265" y="209"/>
      <point x="268" y="221"/>
      <point x="268" y="231" type="curve"/>
      <point x="16" y="231" type="line"/>
      <point x="5" y="225"/>
      <point x="1" y="213"/>
      <point x="1" y="203" type="curve"/>
    </contour>
    <contour>
      <point x="113" y="476"/>
      <point x="77" y="389"/>
      <point x="77" y="256" type="curve" smooth="yes"/>
      <point x="77" y="-70" type="line" smooth="yes"/>
      <point x="77" y="-115"/>
      <point x="63" y="-135"/>
      <point x="41" y="-135" type="curve" smooth="yes"/>
      <point x="18" y="-135"/>
      <point x="9" y="-110"/>
      <point x="9" y="-83" type="curve" smooth="yes"/>
      <point x="9" y="-65"/>
      <point x="15" y="-37"/>
      <point x="31" y="-16" type="curve"/>
      <point x="-9" y="-19"/>
      <point x="-60" y="-42"/>
      <point x="-60" y="-90" type="curve" smooth="yes"/>
      <point x="-60" y="-131"/>
      <point x="-20" y="-158"/>
      <point x="35" y="-158" type="curve" smooth="yes"/>
      <point x="125" y="-158"/>
      <point x="167" y="-93"/>
      <point x="167" y="8" type="curve" smooth="yes"/>
      <point x="167" y="300" type="line" smooth="yes"/>
      <point x="167" y="374"/>
      <point x="171" y="452"/>
      <point x="217" y="452" type="curve" smooth="yes"/>
      <point x="242" y="452"/>
      <point x="252" y="426"/>
      <point x="252" y="400" type="curve" smooth="yes"/>
      <point x="252" y="379"/>
      <point x="246" y="350"/>
      <point x="229" y="327" type="curve"/>
      <point x="273" y="330"/>
      <point x="329" y="355"/>
      <point x="329" y="406" type="curve" smooth="yes"/>
      <point x="329" y="449"/>
      <point x="287" y="476"/>
      <point x="229" y="476" type="curve" smooth="yes"/>
    </contour>
  </outline>
</glyph>
<glyph name="ring" format="1">
  <advance width="206"/>
  <unicode hex="02DA"/>
  <outline>
    <contour>
      <point x="78" y="457"/>
      <point x="87" y="481"/>
      <point x="102" y="481" type="curve" smooth="yes"/>
      <point x="118" y="481"/>
      <point x="127" y="457"/>
      <point x="127" y="428" type="curve" smooth="yes"/>
      <point x="127" y="399"/>
      <point x="118" y="375"/>
      <point x="102" y="375" type="curve" smooth="yes"/>
      <point x="87" y="375"/>
      <point x="78" y="399"/>
      <point x="78" y="428" type="curve" smooth="yes"/>
    </contour>
    <contour>
      <point x="23" y="387"/>
      <point x="49" y="356"/>
      <point x="102" y="356" type="curve" smooth="yes"/>
      <point x="157" y="356"/>
      <point x="184" y="387"/>
      <point x="184" y="428" type="curve" smooth="yes"/>
      <point x="184" y="468"/>
      <point x="157" y="500"/>
      <point x="102" y="500" type="curve" smooth="yes"/>
      <point x="49" y="500"/>
      <point x="23" y="468"/>
      <point x="23" y="428" type="curve" smooth="yes"/>
    </contour>
  </outline>
</glyph>
<glyph name="gravecomb" format="1">
  <advance width="187"/>
  <unicode hex="0300"/>
  <outline>
    <contour>
      <point x="61" y="494" type="line"/>
      <point x="38" y="485"/>
      <point x="24" y="470"/>
      <point x="24" y="449" type="curve" smooth="yes"/>
      <point x="24" y="428"/>
      <point x="35" y="410"/>
      <point x="67" y="399" type="curve" smooth="yes"/>
      <point x="150" y="369" type="line"/>
      <point x="163" y="385" type="line"/>
    </contour>
    <contour>
      <point x="94" y="494" type="move" name="top"/>
    </contour>
    <contour>
      <point x="107" y="325" type="move" name="_top"/>
    </contour>
  </outline>
</glyph>
<glyph name="uni0308" format="1">
  <advance width="274"/>
  <unicode hex="0308"/>
  <outline>
    <contour>
      <point x="20" y="402"/>
      <point x="50" y="371"/>
      <point x="69" y="371" type="curve" smooth="yes"/>
      <point x="89" y="371"/>
      <point x="119" y="402"/>
      <point x="119" y="423" type="curve" smooth="yes"/>
      <point x="119" y="443"/>
      <point x="89" y="476"/>
      <point x="69" y="476" type="curve" smooth="yes"/>
      <point x="50" y="476"/>
      <point x="20" y="443"/>
      <point x="20" y="423" type="curve" smooth="yes"/>
    </contour>
    <contour>
      <point x="154" y="402"/>
      <point x="185" y="371"/>
      <point x="203" y="371" type="curve" smooth="yes"/>
      <point x="223" y="371"/>
      <point x="254" y="402"/>
      <point x="254" y="423" type="curve" smooth="yes"/>
      <point x="254" y="443"/>
      <point x="223" y="476"/>
      <point x="203" y="476" type="curve" smooth="yes"/>
      <point x="184" y="476"/>
      <point x="154" y="443"/>
      <point x="154" y="423" type="curve" smooth="yes"/>
    </contour>
    <contour>
      <point x="137" y="476" type="move" name="top"/>
    </contour>
    <contour>
      <point x="137" y="325" type="move" name="_top"/>
    </contour>
  </outline>
</glyph>
<glyph name="uni030A" format="1">
  <advance width="206"/>
  <unicode hex="030A"/>
  <outline>
    <contour>
      <point x="157" y="356"/>
      <point x="184" y="387"/>
      <point x="184" y="428" type="curve" smooth="yes"/>
      <point x="184" y="468"/>
      <point x="157" y="500"/>
      <point x="102" y="500" type="curve" smooth="yes"/>
      <point x="49" y="500"/>
      <point x="23" y="468"/>
      <point x="23" y="428" type="curve" smooth="yes"/>
      <point x="23" y="387"/>
      <point x="49" y="356"/>
      <point x="102" y="356" type="curve" smooth="yes"/>
    </contour>
    <contour>
      <point x="87" y="375"/>
      <point x="78" y="399"/>
      <point x="78" y="428" type="curve" smooth="yes"/>
      <point x="78" y="457"/>
      <point x="87" y="481"/>
      <point x="102" y="481" type="curve" smooth="yes"/>
      <point x="118" y="481"/>
      <point x="127" y="457"/>
      <point x="127" y="428" type="curve" smooth="yes"/>
      <point x="127" y="399"/>
      <point x="118" y="375"/>
      <point x="102" y="375" type="curve" smooth="yes"/>
    </contour>
    <contour>
      <point x="103" y="500" type="move" name="top"/>
    </contour>
    <contour>
      <point x="103" y="325" type="move" name="_top"/>
    </contour>
  </outline>
</glyph>
<glyph name="uni0326" format="1">
  <advance width="124"/>
  <unicode hex="0326"/>
  <outline>
    <contour>
      <point x="8" y="-46" type="line"/>
      <point x="10" y="-61" type="line"/>
      <point x="19" y="-67" type="line" smooth="yes"/>
      <point x="31" y="-76"/>
      <point x="36" y="-88"/>
      <point x="36" y="-101" type="curve" smooth="yes"/>
      <point x="36" y="-110"/>
      <point x="34" y="-120"/>
      <point x="29" y="-131" type="curve" smooth="yes"/>
      <point x="6" y="-181" type="line"/>
      <point x="24" y="-194" type="line"/>
      <point x="49" y="-170" type="line" smooth="yes"/>
      <point x="83" y="-137"/>
      <point x="106" y="-110"/>
      <point x="106" y="-79" type="curve" smooth="yes"/>
      <point x="106" y="-46"/>
      <point x="85" y="-33"/>
      <point x="60" y="-33" type="curve" smooth="yes"/>
      <point x="46" y="-33"/>
      <point x="30" y="-35"/>
      <point x="15" y="-43" type="curve" smooth="yes"/>
    </contour>
    <contour>
      <point x="56" y="0" type="move" name="_bottom"/>
    </contour>
    <contour>
      <point x="56" y="-194" type="move" name="bottom"/>
    </contour>
  </outline>
</glyph>
<glyph name="uni0337" format="1">
  <advance width="230"/>
  <unicode hex="0337"/>
  <outline>
    <contour>
      <point x="15" y="200" type="line"/>
      <point x="14" y="159" type="line"/>
      <point x="212" y="257" type="line"/>
      <point x="212" y="296" type="line"/>
    </contour>
    <contour>
      <point x="119" y="233" type="move" name="_center"/>
    </contour>
  </outline>
</glyph>
<glyph name="daggerdbl" format="1">
  <advance width="393"/>
  <unicode hex="2021"/>
  <outline>
    <contour>
      <point x="370" y="402"/>
      <point x="364" y="418"/>
      <point x="353" y="429" type="curve"/>
      <point x="227" y="404" type="line"/>
      <point x="244" y="518" type="line"/>
      <point x="233" y="532"/>
      <point x="216" y="538"/>
      <point x="196" y="538" type="curve" smooth="yes"/>
      <point x="176" y="538"/>
      <point x="160" y="532"/>
      <point x="149" y="518" type="curve"/>
      <point x="165" y="404" type="line"/>
      <point x="40" y="429" type="line"/>
      <point x="28" y="418"/>
      <point x="23" y="402"/>
      <point x="23" y="383" type="curve" smooth="yes"/>
      <point x="23" y="363"/>
      <point x="28" y="347"/>
      <point x="40" y="337" type="curve"/>
      <point x="170" y="362" type="line"/>
      <point x="187" y="227" type="line"/>
      <point x="170" y="92" type="line"/>
      <point x="40" y="118" type="line"/>
      <point x="28" y="108"/>
      <point x="23" y="92"/>
      <point x="23" y="72" type="curve" smooth="yes"/>
      <point x="23" y="53"/>
      <point x="28" y="37"/>
      <point x="40" y="26" type="curve"/>
      <point x="165" y="51" type="line"/>
      <point x="149" y="-63" type="line"/>
      <point x="160" y="-77"/>
      <point x="176" y="-83"/>
      <point x="196" y="-83" type="curve" smooth="yes"/>
      <point x="216" y="-83"/>
      <point x="233" y="-77"/>
      <point x="244" y="-63" type="curve"/>
      <point x="227" y="51" type="line"/>
      <point x="353" y="26" type="line"/>
      <point x="364" y="37"/>
      <point x="370" y="53"/>
      <point x="370" y="72" type="curve" smooth="yes"/>
      <point x="370" y="92"/>
      <point x="364" y="108"/>
      <point x="353" y="118" type="curve"/>
      <point x="222" y="92" type="line"/>
      <point x="205" y="227" type="line"/>
      <point x="222" y="362" type="line"/>
      <point x="353" y="337" type="line"/>
      <point x="364" y="347"/>
      <point x="370" y="363"/>
      <point x="370" y="383" type="curve" smooth="yes"/>
    </contour>
  </outline>
</glyph>
<glyph name="fraction" format="1">
  <advance width="128"/>
  <unicode hex="2044"/>
  <outline>
    <contour>
      <point x="-17" y="-20" type="line"/>
      <point x="178" y="486" type="line"/>
      <point x="144" y="486" type="line"/>
      <point x="-50" y="-20" type="line"/>
    </contour>
  </outline>
</glyph>
<glyph name="Euro" format="1">
  <advance width="401"/>
  <unicode hex="20AC"/>
  <outline>
    <contour>
      <point x="252" y="171" type="line"/>
      <point x="263" y="178"/>
      <point x="267" y="189"/>
      <point x="267" y="199" type="curve"/>
      <point x="14" y="199" type="line"/>
      <point x="3" y="193"/>
      <point x="-1" y="181"/>
      <point x="-1" y="171" type="curve"/>
    </contour>
    <contour>
      <point x="252" y="259" type="line"/>
      <point x="263" y="266"/>
      <point x="267" y="277"/>
      <point x="267" y="287" type="curve"/>
      <point x="14" y="287" type="line"/>
      <point x="3" y="281"/>
      <point x="-1" y="269"/>
      <point x="-1" y="259" type="curve"/>
    </contour>
    <contour>
      <point x="318" y="-9"/>
      <point x="373" y="24"/>
      <point x="373" y="77" type="curve" smooth="yes"/>
      <point x="373" y="109"/>
      <point x="347" y="138"/>
      <point x="304" y="141" type="curve" smooth="yes"/>
      <point x="291" y="142"/>
      <point x="275" y="142"/>
      <point x="257" y="137" type="curve"/>
      <point x="271" y="124"/>
      <point x="288" y="95"/>
      <point x="288" y="72" type="curve" smooth="yes"/>
      <point x="288" y="42"/>
      <point x="268" y="14"/>
      <point x="234" y="14" type="curve" smooth="yes"/>
      <point x="171" y="14"/>
      <point x="140" y="96"/>
      <point x="140" y="223" type="curve" smooth="yes"/>
      <point x="140" y="358"/>
      <point x="177" y="452"/>
      <point x="243" y="452" type="curve" smooth="yes"/>
      <point x="277" y="452"/>
      <point x="297" y="426"/>
      <point x="297" y="395" type="curve" smooth="yes"/>
      <point x="297" y="374"/>
      <point x="281" y="343"/>
      <point x="266" y="329" type="curve"/>
      <point x="284" y="325"/>
      <point x="300" y="325"/>
      <point x="313" y="326" type="curve" smooth="yes"/>
      <point x="356" y="329"/>
      <point x="382" y="358"/>
      <point x="382" y="390" type="curve" smooth="yes"/>
      <point x="382" y="442"/>
      <point x="327" y="476"/>
      <point x="248" y="476" type="curve" smooth="yes"/>
      <point x="112" y="476"/>
      <point x="41" y="373"/>
      <point x="41" y="224" type="curve" smooth="yes"/>
      <point x="41" y="83"/>
      <point x="105" y="-9"/>
      <point x="239" y="-9" type="curve" smooth="yes"/>
    </contour>
  </outline>
</glyph>
<glyph name="uni2113" format="1">
  <advance width="205"/>
  <unicode hex="2113"/>
  <outline>
    <contour>
      <point x="142" y="454" type="line" smooth="yes"/>
      <point x="142" y="467"/>
      <point x="131" y="476"/>
      <point x="114" y="476" type="curve" smooth="yes"/>
      <point x="74" y="476"/>
      <point x="29" y="460"/>
      <point x="4" y="437" type="curve"/>
      <point x="7" y="426" type="line"/>
      <point x="39" y="426" type="line" smooth="yes"/>
      <point x="48" y="426"/>
      <point x="52" y="423"/>
      <point x="52" y="412" type="curve" smooth="yes"/>
      <point x="52" y="60" type="line" smooth="yes"/>
      <point x="52" y="11"/>
      <point x="74" y="-9"/>
      <point x="119" y="-9" type="curve" smooth="yes"/>
      <point x="156" y="-9"/>
      <point x="183" y="7"/>
      <point x="206" y="32" type="curve"/>
      <point x="198" y="42" type="line"/>
      <point x="186" y="33"/>
      <point x="172" y="27"/>
      <point x="161" y="27" type="curve" smooth="yes"/>
      <point x="149" y="27"/>
      <point x="142" y="37"/>
      <point x="142" y="57" type="curve" smooth="yes"/>
    </contour>
  </outline>
</glyph>
<glyph name="trademark" format="1">
  <advance width="650"/>
  <unicode hex="2122"/>
  <outline>
    <contour>
      <point x="160" y="426" type="line" smooth="yes"/>
      <point x="160" y="445"/>
      <point x="163" y="450"/>
      <point x="175" y="450" type="curve" smooth="yes"/>
      <point x="183" y="450" type="line" smooth="yes"/>
      <point x="210" y="450"/>
      <point x="221" y="439"/>
      <point x="239" y="393" type="curve"/>
      <point x="252" y="397" type="line"/>
      <point x="252" y="473" type="line"/>
      <point x="245" y="478" type="line"/>
      <point x="237" y="473" type="line" smooth="yes"/>
      <point x="226" y="468"/>
      <point x="211" y="465"/>
      <point x="189" y="465" type="curve" smooth="yes"/>
      <point x="70" y="465" type="line" smooth="yes"/>
      <point x="48" y="465"/>
      <point x="31" y="468"/>
      <point x="23" y="473" type="curve" smooth="yes"/>
      <point x="15" y="478" type="line"/>
      <point x="8" y="473" type="line"/>
      <point x="8" y="397" type="line"/>
      <point x="21" y="393" type="line"/>
      <point x="38" y="438"/>
      <point x="49" y="450"/>
      <point x="76" y="450" type="curve" smooth="yes"/>
      <point x="85" y="450" type="line" smooth="yes"/>
      <point x="96" y="450"/>
      <point x="99" y="444"/>
      <point x="99" y="426" type="curve" smooth="yes"/>
      <point x="99" y="264" type="line" smooth="yes"/>
      <point x="99" y="236"/>
      <point x="94" y="218"/>
      <point x="81" y="198" type="curve" smooth="yes"/>
      <point x="76" y="191" type="line"/>
      <point x="80" y="185" type="line"/>
      <point x="192" y="185" type="line"/>
      <point x="197" y="196" type="line"/>
      <point x="164" y="205"/>
      <point x="160" y="209"/>
      <point x="160" y="235" type="curve" smooth="yes"/>
    </contour>
    <contour>
      <point x="463" y="263" type="line"/>
      <point x="389" y="465" type="line"/>
      <point x="295" y="465" type="line"/>
      <point x="290" y="458" type="line"/>
      <point x="312" y="439"/>
      <point x="317" y="429"/>
      <point x="317" y="403" type="curve" smooth="yes"/>
      <point x="317" y="395"/>
      <point x="316" y="379"/>
      <point x="316" y="367" type="curve" smooth="yes"/>
      <point x="306" y="234" type="line" smooth="yes"/>
      <point x="304" y="209"/>
      <point x="300" y="205"/>
      <point x="267" y="196" type="curve"/>
      <point x="271" y="185" type="line"/>
      <point x="343" y="185" type="line"/>
      <point x="349" y="191" type="line"/>
      <point x="333" y="212"/>
      <point x="329" y="223"/>
      <point x="329" y="247" type="curve" smooth="yes"/>
      <point x="329" y="253"/>
      <point x="330" y="266"/>
      <point x="332" y="286" type="curve" smooth="yes"/>
      <point x="343" y="439" type="line"/>
      <point x="335" y="439" type="line"/>
      <point x="428" y="191" type="line"/>
      <point x="446" y="191" type="line"/>
      <point x="539" y="439" type="line"/>
      <point x="532" y="439" type="line"/>
      <point x="542" y="313"/>
      <point x="548" y="234"/>
      <point x="548" y="226" type="curve" smooth="yes"/>
      <point x="548" y="208"/>
      <point x="544" y="205"/>
      <point x="514" y="196" type="curve"/>
      <point x="519" y="185" type="line"/>
      <point x="632" y="185" type="line"/>
      <point x="637" y="191" type="line"/>
      <point x="619" y="208"/>
      <point x="611" y="228"/>
      <point x="609" y="261" type="curve" smooth="yes"/>
      <point x="600" y="368" type="line" smooth="yes"/>
      <point x="599" y="372"/>
      <point x="597" y="396"/>
      <point x="597" y="403" type="curve" smooth="yes"/>
      <point x="597" y="426"/>
      <point x="601" y="437"/>
      <point x="618" y="459" type="curve"/>
      <point x="611" y="465" type="line"/>
      <point x="529" y="465" type="line"/>
      <point x="451" y="263" type="line"/>
    </contour>
  </outline>
</glyph>
<glyph name="approxequal" format="1">
  <advance width="405"/>
  <unicode hex="2248"/>
  <outline>
    <contour>
      <point x="340" y="327" type="line"/>
      <point x="323" y="342"/>
      <point x="300" y="348"/>
      <point x="277" y="348" type="curve" smooth="yes"/>
      <point x="222" y="348"/>
      <point x="185" y="306"/>
      <point x="131" y="306" type="curve" smooth="yes"/>
      <point x="108" y="306"/>
      <point x="85" y="313"/>
      <point x="65" y="327" type="curve"/>
      <point x="65" y="278" type="line"/>
      <point x="83" y="263"/>
      <point x="106" y="257"/>
      <point x="128" y="257" type="curve" smooth="yes"/>
      <point x="184" y="257"/>
      <point x="221" y="299"/>
      <point x="275" y="299" type="curve" smooth="yes"/>
      <point x="298" y="299"/>
      <point x="321" y="291"/>
      <point x="340" y="278" type="curve"/>
    </contour>
    <contour>
      <point x="340" y="187" type="line"/>
      <point x="323" y="202"/>
      <point x="300" y="207"/>
      <point x="277" y="207" type="curve" smooth="yes"/>
      <point x="222" y="207"/>
      <point x="185" y="166"/>
      <point x="131" y="166" type="curve" smooth="yes"/>
      <point x="108" y="166"/>
      <point x="85" y="173"/>
      <point x="65" y="187" type="curve"/>
      <point x="65" y="137" type="line"/>
      <point x="83" y="123"/>
      <point x="106" y="116"/>
      <point x="128" y="116" type="curve" smooth="yes"/>
      <point x="184" y="116"/>
      <point x="221" y="159"/>
      <point x="275" y="159" type="curve" smooth="yes"/>
      <point x="298" y="159"/>
      <point x="321" y="151"/>
      <point x="340" y="137" type="curve"/>
    </contour>
  </outline>
</glyph>
<glyph name="barra" format="1">
  <advance width="248"/>
  <outline>
    <contour>
      <point x="203" y="206" type="line"/>
      <point x="203" y="239" type="line"/>
      <point x="46" y="239" type="line"/>
      <point x="46" y="206" type="line"/>
    </contour>
  </outline>
</glyph>
<glyph name="caroncomb.alt" format="1">
  <advance width="132"/>
  <outline>
    <contour>
      <point x="18" y="503" type="line"/>
      <point x="21" y="488" type="line"/>
      <point x="29" y="481" type="line" smooth="yes"/>
      <point x="41" y="473"/>
      <point x="46" y="462"/>
      <point x="46" y="449" type="curve" smooth="yes"/>
      <point x="46" y="439"/>
      <point x="44" y="429"/>
      <point x="39" y="419" type="curve" smooth="yes"/>
      <point x="16" y="368" type="line"/>
      <point x="35" y="356" type="line"/>
      <point x="59" y="379" type="line" smooth="yes"/>
      <point x="93" y="412"/>
      <point x="116" y="439"/>
      <point x="116" y="470" type="curve" smooth="yes"/>
      <point x="116" y="503"/>
      <point x="95" y="517"/>
      <point x="70" y="517" type="curve" smooth="yes"/>
      <point x="56" y="517"/>
      <point x="40" y="514"/>
      <point x="25" y="507" type="curve" smooth="yes"/>
    </contour>
    <contour>
      <point x="0" y="325" type="move" name="_topright"/>
    </contour>
  </outline>
</glyph>
<glyph name="ethbar" format="1">
  <advance width="280"/>
  <outline>
    <contour>
      <point x="259" y="222" type="line"/>
      <point x="270" y="229"/>
      <point x="274" y="241"/>
      <point x="274" y="250" type="curve"/>
      <point x="21" y="250" type="line"/>
      <point x="10" y="244"/>
      <point x="7" y="232"/>
      <point x="7" y="222" type="curve"/>
    </contour>
  </outline>
</glyph>
<glyph name="five.osf" format="1">
  <advance width="368"/>
  <outline>
    <contour>
      <point x="119" y="7"/>
      <point x="130" y="38"/>
      <point x="156" y="56" type="curve"/>
      <point x="154" y="64" type="line"/>
      <point x="88" y="61"/>
      <point x="26" y="32"/>
      <point x="26" y="-25" type="curve" smooth="yes"/>
      <point x="26" y="-90"/>
      <point x="99" y="-125"/>
      <point x="182" y="-125" type="curve" smooth="yes"/>
      <point x="286" y="-125"/>
      <point x="354" y="-76"/>
      <point x="354" y="6" type="curve" smooth="yes"/>
      <point x="354" y="88"/>
      <point x="294" y="151"/>
      <point x="167" y="151" type="curve" smooth="yes"/>
      <point x="143" y="151"/>
      <point x="117" y="148"/>
      <point x="88" y="143" type="curve"/>
      <point x="98" y="273" type="line"/>
      <point x="87" y="253" type="line"/>
      <point x="310" y="253" type="line"/>
      <point x="329" y="269"/>
      <point x="334" y="300"/>
      <point x="334" y="323" type="curve"/>
      <point x="70" y="323" type="line"/>
      <point x="56" y="136" type="line"/>
      <point x="69" y="112" type="line"/>
      <point x="92" y="118"/>
      <point x="112" y="121"/>
      <point x="129" y="121" type="curve" smooth="yes"/>
      <point x="232" y="121"/>
      <point x="253" y="54"/>
      <point x="253" y="6" type="curve" smooth="yes"/>
      <point x="253" y="-66"/>
      <point x="222" y="-99"/>
      <point x="183" y="-99" type="curve" smooth="yes"/>
      <point x="148" y="-99"/>
      <point x="119" y="-71"/>
      <point x="119" y="-23" type="curve" smooth="yes"/>
    </contour>
  </outline>
</glyph>
<glyph name="four.numr" format="1">
  <advance width="260"/>
  <outline>
    <contour>
      <point x="19" y="253" type="line"/>
      <point x="236" y="253" type="line"/>
      <point x="243" y="258"/>
      <point x="247" y="267"/>
      <point x="247" y="280" type="curve"/>
      <point x="59" y="280" type="line"/>
      <point x="176" y="462" type="line"/>
      <point x="168" y="470" type="line"/>
      <point x="99" y="470" type="line"/>
      <point x="11" y="264" type="line"/>
    </contour>
    <contour>
      <point x="214" y="371" type="line"/>
      <point x="139" y="366" type="line"/>
      <point x="134" y="358" type="line"/>
      <point x="141" y="348"/>
      <point x="143" y="340"/>
      <point x="143" y="323" type="curve" smooth="yes"/>
      <point x="143" y="243" type="line" smooth="yes"/>
      <point x="143" y="222"/>
      <point x="138" y="214"/>
      <point x="120" y="210" type="curve" smooth="yes"/>
      <point x="102" y="206" type="line"/>
      <point x="106" y="190" type="line"/>
      <point x="231" y="190" type="line"/>
      <point x="238" y="198" type="line"/>
      <point x="232" y="206" type="line" smooth="yes"/>
      <point x="219" y="223"/>
      <point x="214" y="236"/>
      <point x="214" y="253" type="curve" smooth="yes"/>
    </contour>
  </outline>
</glyph>
<glyph name="nine.dnom" format="1">
  <advance width="281"/>
  <outline>
    <contour>
      <point x="36" y="12"/>
      <point x="73" y="-9"/>
      <point x="127" y="-9" type="curve" smooth="yes"/>
      <point x="205" y="-9"/>
      <point x="253" y="44"/>
      <point x="253" y="131" type="curve" smooth="yes"/>
      <point x="253" y="229"/>
      <point x="211" y="285"/>
      <point x="138" y="285" type="curve" smooth="yes"/>
      <point x="76" y="285"/>
      <point x="30" y="243"/>
      <point x="30" y="187" type="curve" smooth="yes"/>
      <point x="30" y="145"/>
      <point x="63" y="114"/>
      <point x="107" y="114" type="curve" smooth="yes"/>
      <point x="136" y="114"/>
      <point x="159" y="124"/>
      <point x="174" y="143" type="curve"/>
      <point x="178" y="143" type="line"/>
      <point x="178" y="54"/>
      <point x="164" y="16"/>
      <point x="132" y="16" type="curve" smooth="yes"/>
      <point x="117" y="16"/>
      <point x="107" y="29"/>
      <point x="107" y="49" type="curve" smooth="yes"/>
      <point x="107" y="63"/>
      <point x="113" y="81"/>
      <point x="119" y="88" type="curve"/>
      <point x="118" y="95" type="line"/>
      <point x="67" y="95"/>
      <point x="36" y="75"/>
      <point x="36" y="43" type="curve" smooth="yes"/>
    </contour>
    <contour>
      <point x="122" y="139"/>
      <point x="110" y="163"/>
      <point x="110" y="200" type="curve" smooth="yes"/>
      <point x="110" y="237"/>
      <point x="123" y="263"/>
      <point x="142" y="263" type="curve" smooth="yes"/>
      <point x="160" y="263"/>
      <point x="174" y="236"/>
      <point x="174" y="199" type="curve" smooth="yes"/>
      <point x="174" y="164"/>
      <point x="160" y="139"/>
      <point x="140" y="139" type="curve" smooth="yes"/>
    </contour>
  </outline>
</glyph>
<glyph name="seven.dnom" format="1">
  <advance width="208"/>
  <outline>
    <contour>
      <point x="201" y="280" type="line"/>
      <point x="-5" y="280" type="line"/>
      <point x="-5" y="258"/>
      <point x="1" y="241"/>
      <point x="13" y="232" type="curve"/>
      <point x="149" y="232" type="line"/>
      <point x="52" y="45" type="line" smooth="yes"/>
      <point x="42" y="28"/>
      <point x="33" y="20"/>
      <point x="16" y="17" type="curve" smooth="yes"/>
      <point x="9" y="16" type="line"/>
      <point x="13" y="0" type="line"/>
      <point x="127" y="0" type="line"/>
      <point x="135" y="8" type="line"/>
      <point x="133" y="12" type="line" smooth="yes"/>
      <point x="128" y="22"/>
      <point x="126" y="29"/>
      <point x="126" y="38" type="curve" smooth="yes"/>
      <point x="126" y="48"/>
      <point x="129" y="62"/>
      <point x="135" y="79" type="curve" smooth="yes"/>
      <point x="208" y="269" type="line"/>
    </contour>
  </outline>
</glyph>
<glyph name="seven.numr" format="1">
  <advance width="208"/>
  <outline>
    <contour>
      <point x="201" y="470" type="line"/>
      <point x="-5" y="470" type="line"/>
      <point x="-5" y="448"/>
      <point x="1" y="431"/>
      <point x="13" y="422" type="curve"/>
      <point x="149" y="422" type="line"/>
      <point x="52" y="235" type="line" smooth="yes"/>
      <point x="42" y="218"/>
      <point x="33" y="210"/>
      <point x="16" y="207" type="curve" smooth="yes"/>
      <point x="9" y="206" type="line"/>
      <point x="13" y="190" type="line"/>
      <point x="127" y="190" type="line"/>
      <point x="135" y="198" type="line"/>
      <point x="133" y="202" type="line" smooth="yes"/>
      <point x="128" y="212"/>
      <point x="126" y="219"/>
      <point x="126" y="228" type="curve" smooth="yes"/>
      <point x="126" y="238"/>
      <point x="129" y="252"/>
      <point x="135" y="269" type="curve" smooth="yes"/>
      <point x="208" y="459" type="line"/>
    </contour>
  </outline>
</glyph>
<glyph name="six.numr" format="1">
  <advance width="281"/>
  <outline>
    <contour>
      <point x="160" y="330"/>
      <point x="171" y="306"/>
      <point x="171" y="268" type="curve" smooth="yes"/>
      <point x="171" y="229"/>
      <point x="159" y="204"/>
      <point x="139" y="204" type="curve" smooth="yes"/>
      <point x="121" y="204"/>
      <point x="111" y="226"/>
      <point x="111" y="264" type="curve" smooth="yes"/>
      <point x="111" y="303"/>
      <point x="124" y="330"/>
      <point x="142" y="330" type="curve" smooth="yes"/>
    </contour>
    <contour>
      <point x="174" y="401"/>
      <point x="167" y="385"/>
      <point x="158" y="379" type="curve"/>
      <point x="160" y="372" type="line"/>
      <point x="212" y="372"/>
      <point x="245" y="391"/>
      <point x="245" y="421" type="curve" smooth="yes"/>
      <point x="245" y="453"/>
      <point x="209" y="475"/>
      <point x="156" y="475" type="curve" smooth="yes"/>
      <point x="73" y="475"/>
      <point x="20" y="413"/>
      <point x="20" y="315" type="curve" smooth="yes"/>
      <point x="20" y="234"/>
      <point x="69" y="181"/>
      <point x="143" y="181" type="curve" smooth="yes"/>
      <point x="208" y="181"/>
      <point x="250" y="217"/>
      <point x="250" y="273" type="curve" smooth="yes"/>
      <point x="250" y="322"/>
      <point x="219" y="353"/>
      <point x="169" y="353" type="curve" smooth="yes"/>
      <point x="135" y="353"/>
      <point x="112" y="340"/>
      <point x="99" y="315" type="curve"/>
      <point x="95" y="315" type="line"/>
      <point x="95" y="396"/>
      <point x="117" y="453"/>
      <point x="148" y="453" type="curve" smooth="yes"/>
      <point x="164" y="453"/>
      <point x="174" y="438"/>
      <point x="174" y="414" type="curve" smooth="yes"/>
    </contour>
  </outline>
</glyph>
<glyph name="six.osf" format="1">
  <advance width="417"/>
  <outline>
    <contour>
      <point x="264" y="241"/>
      <point x="282" y="192"/>
      <point x="282" y="132" type="curve" smooth="yes"/>
      <point x="282" y="68"/>
      <point x="258" y="19"/>
      <point x="214" y="19" type="curve" smooth="yes"/>
      <point x="170" y="19"/>
      <point x="153" y="67"/>
      <point x="153" y="126" type="curve" smooth="yes"/>
      <point x="153" y="187"/>
      <point x="177" y="241"/>
      <point x="222" y="241" type="curve" smooth="yes"/>
    </contour>
    <contour>
      <point x="373" y="427"/>
      <point x="317" y="463"/>
      <point x="237" y="463" type="curve" smooth="yes"/>
      <point x="98" y="463"/>
      <point x="29" y="344"/>
      <point x="29" y="203" type="curve" smooth="yes"/>
      <point x="29" y="88"/>
      <point x="92" y="-9"/>
      <point x="219" y="-9" type="curve" smooth="yes"/>
      <point x="329" y="-9"/>
      <point x="385" y="59"/>
      <point x="385" y="142" type="curve" smooth="yes"/>
      <point x="385" y="215"/>
      <point x="342" y="272"/>
      <point x="254" y="272" type="curve" smooth="yes"/>
      <point x="188" y="272"/>
      <point x="149" y="236"/>
      <point x="137" y="174" type="curve"/>
      <point x="133" y="174" type="line"/>
      <point x="130" y="185"/>
      <point x="130" y="199"/>
      <point x="130" y="211" type="curve" smooth="yes"/>
      <point x="130" y="314"/>
      <point x="156" y="439"/>
      <point x="226" y="439" type="curve" smooth="yes"/>
      <point x="259" y="439"/>
      <point x="280" y="413"/>
      <point x="280" y="372" type="curve" smooth="yes"/>
      <point x="280" y="348"/>
      <point x="273" y="325"/>
      <point x="255" y="312" type="curve"/>
      <point x="257" y="304" type="line"/>
      <point x="318" y="304"/>
      <point x="373" y="330"/>
      <point x="373" y="378" type="curve" smooth="yes"/>
    </contour>
  </outline>
</glyph>
<glyph name="three.numr" format="1">
  <advance width="261"/>
  <outline>
    <contour>
      <point x="91" y="265"/>
      <point x="96" y="279"/>
      <point x="105" y="288" type="curve"/>
      <point x="103" y="295" type="line"/>
      <point x="51" y="294"/>
      <point x="20" y="276"/>
      <point x="20" y="246" type="curve" smooth="yes"/>
      <point x="20" y="207"/>
      <point x="62" y="181"/>
      <point x="125" y="181" type="curve" smooth="yes"/>
      <point x="196" y="181"/>
      <point x="238" y="210"/>
      <point x="238" y="259" type="curve" smooth="yes"/>
      <point x="238" y="297"/>
      <point x="214" y="325"/>
      <point x="174" y="334" type="curve"/>
      <point x="212" y="350"/>
      <point x="230" y="373"/>
      <point x="230" y="406" type="curve" smooth="yes"/>
      <point x="230" y="446"/>
      <point x="188" y="475"/>
      <point x="129" y="475" type="curve" smooth="yes"/>
      <point x="70" y="475"/>
      <point x="28" y="450"/>
      <point x="28" y="415" type="curve" smooth="yes"/>
      <point x="28" y="382"/>
      <point x="57" y="363"/>
      <point x="109" y="362" type="curve"/>
      <point x="111" y="369" type="line"/>
      <point x="104" y="377"/>
      <point x="99" y="396"/>
      <point x="99" y="415" type="curve" smooth="yes"/>
      <point x="99" y="436"/>
      <point x="110" y="453"/>
      <point x="124" y="453" type="curve" smooth="yes"/>
      <point x="142" y="453"/>
      <point x="155" y="432"/>
      <point x="155" y="404" type="curve" smooth="yes"/>
      <point x="155" y="368"/>
      <point x="132" y="343"/>
      <point x="88" y="332" type="curve" smooth="yes"/>
      <point x="72" y="328" type="line"/>
      <point x="75" y="314" type="line"/>
      <point x="83" y="316"/>
      <point x="90" y="318"/>
      <point x="106" y="318" type="curve" smooth="yes"/>
      <point x="141" y="318"/>
      <point x="162" y="297"/>
      <point x="162" y="262" type="curve" smooth="yes"/>
      <point x="162" y="227"/>
      <point x="146" y="204"/>
      <point x="123" y="204" type="curve" smooth="yes"/>
      <point x="102" y="204"/>
      <point x="91" y="219"/>
      <point x="91" y="248" type="curve" smooth="yes"/>
    </contour>
  </outline>
</glyph>
<glyph name="two.dnom" format="1">
  <advance width="261"/>
  <outline>
    <contour>
      <point x="22" y="181"/>
      <point x="53" y="162"/>
      <point x="108" y="161" type="curve"/>
      <point x="110" y="168" type="line"/>
      <point x="100" y="176"/>
      <point x="93" y="195"/>
      <point x="93" y="215" type="curve" smooth="yes"/>
      <point x="93" y="243"/>
      <point x="107" y="263"/>
      <point x="126" y="263" type="curve" smooth="yes"/>
      <point x="145" y="263"/>
      <point x="158" y="242"/>
      <point x="158" y="211" type="curve" smooth="yes"/>
      <point x="158" y="156"/>
      <point x="123" y="110"/>
      <point x="12" y="22" type="curve"/>
      <point x="24" y="0" type="line"/>
      <point x="226" y="0" type="line"/>
      <point x="238" y="9"/>
      <point x="244" y="25"/>
      <point x="244" y="47" type="curve"/>
      <point x="80" y="47" type="line"/>
      <point x="186" y="104"/>
      <point x="237" y="156"/>
      <point x="237" y="206" type="curve" smooth="yes"/>
      <point x="237" y="256"/>
      <point x="197" y="285"/>
      <point x="126" y="285" type="curve" smooth="yes"/>
      <point x="65" y="285"/>
      <point x="22" y="256"/>
      <point x="22" y="215" type="curve" smooth="yes"/>
    </contour>
  </outline>
</glyph>
<glyph name="uniF8FF" format="1">
  <advance width="540"/>
  <outline>
    <contour>
      <point x="327" y="-51"/>
      <point x="330" y="-51"/>
      <point x="331" y="-51" type="curve" smooth="yes"/>
      <point x="336" y="-51"/>
      <point x="340" y="-52"/>
      <point x="345" y="-52" type="curve" smooth="yes"/>
      <point x="359" y="-52"/>
      <point x="361" y="-41"/>
      <point x="371" y="-35" type="curve" smooth="yes"/>
      <point x="380" y="-31"/>
      <point x="392" y="-30"/>
      <point x="400" y="-25" type="curve" smooth="yes"/>
      <point x="407" y="-20"/>
      <point x="410" y="-7"/>
      <point x="417" y="1" type="curve" smooth="yes"/>
      <point x="423" y="7"/>
      <point x="432" y="7"/>
      <point x="437" y="14" type="curve" smooth="yes"/>
      <point x="444" y="21"/>
      <point x="443" y="35"/>
      <point x="448" y="44" type="curve" smooth="yes"/>
      <point x="454" y="53"/>
      <point x="468" y="54"/>
      <point x="468" y="70" type="curve" smooth="yes"/>
      <point x="468" y="76"/>
      <point x="467" y="83"/>
      <point x="467" y="89" type="curve" smooth="yes"/>
      <point x="467" y="103"/>
      <point x="480" y="105"/>
      <point x="482" y="117" type="curve"/>
      <point x="482" y="125"/>
      <point x="475" y="134"/>
      <point x="475" y="143" type="curve" smooth="yes"/>
      <point x="475" y="150"/>
      <point x="482" y="157"/>
      <point x="482" y="166" type="curve" smooth="yes"/>
      <point x="482" y="178"/>
      <point x="467" y="187"/>
      <point x="467" y="202" type="curve" smooth="yes"/>
      <point x="467" y="206"/>
      <point x="468" y="211"/>
      <point x="468" y="216" type="curve" smooth="yes"/>
      <point x="468" y="232"/>
      <point x="453" y="234"/>
      <point x="447" y="244" type="curve" smooth="yes"/>
      <point x="443" y="250"/>
      <point x="447" y="263"/>
      <point x="443" y="269" type="curve" smooth="yes"/>
      <point x="436" y="280"/>
      <point x="421" y="283"/>
      <point x="413" y="290" type="curve"/>
      <point x="406" y="297"/>
      <point x="407" y="307"/>
      <point x="400" y="313" type="curve" smooth="yes"/>
      <point x="391" y="319"/>
      <point x="382" y="317"/>
      <point x="373" y="322" type="curve" smooth="yes"/>
      <point x="362" y="328"/>
      <point x="361" y="343"/>
      <point x="345" y="343" type="curve" smooth="yes"/>
      <point x="339" y="343"/>
      <point x="333" y="341"/>
      <point x="329" y="341" type="curve" smooth="yes"/>
      <point x="315" y="341"/>
      <point x="311" y="356"/>
      <point x="295" y="356" type="curve" smooth="yes"/>
      <point x="287" y="356"/>
      <point x="278" y="348"/>
      <point x="269" y="348" type="curve" smooth="yes"/>
      <point x="261" y="348"/>
      <point x="251" y="356"/>
      <point x="243" y="356" type="curve" smooth="yes"/>
      <point x="231" y="356"/>
      <point x="226" y="342"/>
      <point x="211" y="342" type="curve" smooth="yes"/>
      <point x="206" y="342"/>
      <point x="201" y="343"/>
      <point x="196" y="343" type="curve" smooth="yes"/>
      <point x="181" y="343"/>
      <point x="177" y="326"/>
      <point x="167" y="321" type="curve" smooth="yes"/>
      <point x="158" y="317"/>
      <point x="145" y="318"/>
      <point x="137" y="311" type="curve" smooth="yes"/>
      <point x="131" y="306"/>
      <point x="129" y="293"/>
      <point x="123" y="287" type="curve" smooth="yes"/>
      <point x="116" y="281"/>
      <point x="104" y="281"/>
      <point x="99" y="273" type="curve" smooth="yes"/>
      <point x="96" y="267"/>
      <point x="97" y="254"/>
      <point x="93" y="248" type="curve" smooth="yes"/>
      <point x="87" y="238"/>
      <point x="73" y="235"/>
      <point x="73" y="220" type="curve" smooth="yes"/>
      <point x="73" y="205" type="line" smooth="yes"/>
      <point x="73" y="194"/>
      <point x="59" y="182"/>
      <point x="59" y="170" type="curve" smooth="yes"/>
      <point x="59" y="161"/>
      <point x="66" y="155"/>
      <point x="66" y="145" type="curve" smooth="yes"/>
      <point x="66" y="137"/>
      <point x="59" y="127"/>
      <point x="59" y="120" type="curve" smooth="yes"/>
      <point x="59" y="107"/>
      <point x="73" y="98"/>
      <point x="73" y="87" type="curve" smooth="yes"/>
      <point x="73" y="83"/>
      <point x="72" y="78"/>
      <point x="72" y="73" type="curve" smooth="yes"/>
      <point x="72" y="57"/>
      <point x="86" y="51"/>
      <point x="91" y="44" type="curve" smooth="yes"/>
      <point x="98" y="33"/>
      <point x="94" y="27"/>
      <point x="100" y="16" type="curve" smooth="yes"/>
      <point x="106" y="7"/>
      <point x="115" y="8"/>
      <point x="123" y="3" type="curve" smooth="yes"/>
      <point x="131" y="-4"/>
      <point x="130" y="-18"/>
      <point x="140" y="-25" type="curve" smooth="yes"/>
      <point x="150" y="-31"/>
      <point x="154" y="-25"/>
      <point x="167" y="-33" type="curve" smooth="yes"/>
      <point x="175" y="-36"/>
      <point x="182" y="-53"/>
      <point x="197" y="-53" type="curve" smooth="yes"/>
      <point x="202" y="-53"/>
      <point x="207" y="-52"/>
      <point x="211" y="-52" type="curve" smooth="yes"/>
      <point x="225" y="-52"/>
      <point x="231" y="-67"/>
      <point x="243" y="-67" type="curve" smooth="yes"/>
      <point x="252" y="-67"/>
      <point x="261" y="-60"/>
      <point x="270" y="-60" type="curve" smooth="yes"/>
      <point x="279" y="-60"/>
      <point x="289" y="-66"/>
      <point x="297" y="-66" type="curve" smooth="yes"/>
      <point x="307" y="-66"/>
      <point x="315" y="-55"/>
      <point x="325" y="-52" type="curve" smooth="yes"/>
    </contour>
    <contour>
      <point x="302" y="0"/>
      <point x="296" y="-8"/>
      <point x="289" y="-8" type="curve" smooth="yes"/>
      <point x="283" y="-8"/>
      <point x="277" y="-3"/>
      <point x="270" y="-3" type="curve" smooth="yes"/>
      <point x="263" y="-3"/>
      <point x="256" y="-9"/>
      <point x="249" y="-9" type="curve"/>
      <point x="241" y="-8"/>
      <point x="237" y="2"/>
      <point x="226" y="2" type="curve" smooth="yes"/>
      <point x="223" y="2"/>
      <point x="220" y="1"/>
      <point x="217" y="1" type="curve" smooth="yes"/>
      <point x="206" y="1"/>
      <point x="202" y="14"/>
      <point x="196" y="16" type="curve" smooth="yes"/>
      <point x="185" y="21"/>
      <point x="183" y="17"/>
      <point x="176" y="21" type="curve" smooth="yes"/>
      <point x="168" y="26"/>
      <point x="169" y="37"/>
      <point x="163" y="42" type="curve" smooth="yes"/>
      <point x="158" y="46"/>
      <point x="151" y="45"/>
      <point x="147" y="51" type="curve" smooth="yes"/>
      <point x="142" y="59"/>
      <point x="145" y="64"/>
      <point x="140" y="72" type="curve" smooth="yes"/>
      <point x="137" y="77"/>
      <point x="125" y="81"/>
      <point x="125" y="92" type="curve" smooth="yes"/>
      <point x="125" y="96"/>
      <point x="127" y="99"/>
      <point x="127" y="102" type="curve" smooth="yes"/>
      <point x="127" y="111"/>
      <point x="117" y="117"/>
      <point x="117" y="125" type="curve" smooth="yes"/>
      <point x="117" y="132"/>
      <point x="122" y="138"/>
      <point x="122" y="145" type="curve" smooth="yes"/>
      <point x="122" y="152"/>
      <point x="117" y="156"/>
      <point x="117" y="163" type="curve" smooth="yes"/>
      <point x="117" y="172"/>
      <point x="127" y="180"/>
      <point x="127" y="190" type="curve" smooth="yes"/>
      <point x="127" y="192"/>
      <point x="126" y="196"/>
      <point x="126" y="199" type="curve" smooth="yes"/>
      <point x="126" y="210"/>
      <point x="137" y="213"/>
      <point x="142" y="220" type="curve" smooth="yes"/>
      <point x="144" y="225"/>
      <point x="143" y="233"/>
      <point x="146" y="238" type="curve" smooth="yes"/>
      <point x="150" y="243"/>
      <point x="159" y="243"/>
      <point x="163" y="248" type="curve" smooth="yes"/>
      <point x="168" y="253"/>
      <point x="169" y="261"/>
      <point x="174" y="266" type="curve" smooth="yes"/>
      <point x="179" y="270"/>
      <point x="189" y="269"/>
      <point x="196" y="272" type="curve" smooth="yes"/>
      <point x="203" y="276"/>
      <point x="205" y="289"/>
      <point x="216" y="289" type="curve" smooth="yes"/>
      <point x="220" y="289"/>
      <point x="223" y="288"/>
      <point x="226" y="288" type="curve" smooth="yes"/>
      <point x="237" y="288"/>
      <point x="242" y="298"/>
      <point x="251" y="298" type="curve" smooth="yes"/>
      <point x="257" y="298"/>
      <point x="264" y="293"/>
      <point x="270" y="293" type="curve" smooth="yes"/>
      <point x="276" y="293"/>
      <point x="283" y="298"/>
      <point x="289" y="298" type="curve" smooth="yes"/>
      <point x="300" y="298"/>
      <point x="302" y="287"/>
      <point x="313" y="287" type="curve" smooth="yes"/>
      <point x="317" y="287"/>
      <point x="320" y="289"/>
      <point x="324" y="289" type="curve" smooth="yes"/>
      <point x="336" y="289"/>
      <point x="337" y="278"/>
      <point x="345" y="273" type="curve" smooth="yes"/>
      <point x="352" y="269"/>
      <point x="358" y="272"/>
      <point x="364" y="267" type="curve"/>
      <point x="370" y="263"/>
      <point x="369" y="255"/>
      <point x="374" y="250" type="curve" smooth="yes"/>
      <point x="380" y="244"/>
      <point x="391" y="242"/>
      <point x="395" y="235" type="curve" smooth="yes"/>
      <point x="398" y="231"/>
      <point x="396" y="222"/>
      <point x="398" y="217" type="curve" smooth="yes"/>
      <point x="403" y="209"/>
      <point x="413" y="208"/>
      <point x="413" y="196" type="curve" smooth="yes"/>
      <point x="413" y="192"/>
      <point x="413" y="189"/>
      <point x="413" y="186" type="curve" smooth="yes"/>
      <point x="413" y="176"/>
      <point x="424" y="169"/>
      <point x="424" y="160" type="curve" smooth="yes"/>
      <point x="424" y="155"/>
      <point x="419" y="149"/>
      <point x="419" y="143" type="curve" smooth="yes"/>
      <point x="419" y="137"/>
      <point x="424" y="131"/>
      <point x="424" y="125" type="curve"/>
      <point x="422" y="116"/>
      <point x="413" y="114"/>
      <point x="413" y="103" type="curve" smooth="yes"/>
      <point x="413" y="100"/>
      <point x="413" y="96"/>
      <point x="413" y="92" type="curve" smooth="yes"/>
      <point x="413" y="78"/>
      <point x="404" y="79"/>
      <point x="400" y="72" type="curve" smooth="yes"/>
      <point x="396" y="65"/>
      <point x="396" y="55"/>
      <point x="392" y="49" type="curve" smooth="yes"/>
      <point x="388" y="44"/>
      <point x="381" y="44"/>
      <point x="377" y="40" type="curve"/>
      <point x="372" y="35"/>
      <point x="370" y="26"/>
      <point x="364" y="22" type="curve" smooth="yes"/>
      <point x="359" y="18"/>
      <point x="349" y="18"/>
      <point x="343" y="14" type="curve" smooth="yes"/>
      <point x="336" y="11"/>
      <point x="336" y="2"/>
      <point x="324" y="2" type="curve" smooth="yes"/>
      <point x="321" y="2"/>
      <point x="319" y="3"/>
      <point x="315" y="3" type="curve" smooth="yes"/>
      <point x="313" y="3"/>
      <point x="312" y="3"/>
      <point x="310" y="2" type="curve" smooth="yes"/>
    </contour>
    <contour>
      <point x="215" y="244"/>
      <point x="171" y="200"/>
      <point x="171" y="144" type="curve" smooth="yes"/>
      <point x="171" y="90"/>
      <point x="215" y="45"/>
      <point x="270" y="45" type="curve" smooth="yes"/>
      <point x="325" y="45"/>
      <point x="370" y="90"/>
      <point x="370" y="144" type="curve" smooth="yes"/>
      <point x="370" y="200"/>
      <point x="325" y="244"/>
      <point x="270" y="244" type="curve" smooth="yes"/>
    </contour>
    <contour>
      <point x="295" y="171" type="line"/>
      <point x="295" y="68" type="line"/>
      <point x="246" y="68" type="line"/>
      <point x="246" y="171" type="line"/>
      <point x="214" y="171" type="line"/>
      <point x="214" y="211" type="line"/>
      <point x="326" y="211" type="line"/>
      <point x="326" y="171" type="line"/>
    </contour>
  </outline>
</glyph>
<glyph name="zero.numr" format="1">
  <advance width="299"/>
  <outline>
    <contour>
      <point x="23" y="238"/>
      <point x="70" y="181"/>
      <point x="144" y="181" type="curve" smooth="yes"/>
      <point x="222" y="181"/>
      <point x="275" y="244"/>
      <point x="275" y="336" type="curve" smooth="yes"/>
      <point x="275" y="422"/>
      <point x="228" y="475"/>
      <point x="154" y="475" type="curve" smooth="yes"/>
      <point x="77" y="475"/>
      <point x="23" y="414"/>
      <point x="23" y="328" type="curve" smooth="yes"/>
    </contour>
    <contour>
      <point x="101" y="404"/>
      <point x="119" y="453"/>
      <point x="148" y="453" type="curve" smooth="yes"/>
      <point x="178" y="453"/>
      <point x="196" y="405"/>
      <point x="196" y="327" type="curve" smooth="yes"/>
      <point x="196" y="250"/>
      <point x="178" y="204"/>
      <point x="148" y="204" type="curve" smooth="yes"/>
      <point x="119" y="204"/>
      <point x="101" y="251"/>
      <point x="101" y="327" type="curve" smooth="yes"/>
    </contour>
  </outline>
</glyph>
